<svg xmlns="http://www.w3.org/2000/svg" xmlns:xlink="http://www.w3.org/1999/xlink" width="100" zoomAndPan="magnify" viewBox="0 0 75 74.999997" height="100" preserveAspectRatio="xMidYMid meet" version="1.0"><defs><clipPath id="546533d650"><path d="M 10.753906 9.011719 L 64.003906 9.011719 L 64.003906 66 L 10.753906 66 Z M 10.753906 9.011719 " clip-rule="nonzero"/></clipPath></defs><g clip-path="url(#546533d650)"><path fill="#dca74b" d="M 51.476562 43.082031 L 53.617188 43.316406 C 54.3125 43.394531 54.949219 42.886719 55.027344 42.183594 C 55.105469 41.480469 54.59375 40.847656 53.894531 40.769531 L 51.757812 40.535156 C 51.429688 40.496094 51.082031 40.597656 50.820312 40.8125 C 49.917969 41.539062 50.367188 42.960938 51.476562 43.082031 Z M 49.925781 47.210938 C 49.917969 47.394531 49.734375 47.808594 49.671875 47.972656 C 48.988281 49.679688 49.066406 50.0625 49.65625 50.347656 C 50.097656 50.558594 50.625 50.375 50.835938 49.933594 L 51.617188 48.3125 C 51.933594 47.660156 52.089844 47.074219 52.152344 46.351562 L 52.277344 44.9375 C 51.5625 44.855469 50.878906 44.839844 50.230469 44.507812 Z M 52.886719 30.207031 L 55.027344 30.441406 C 55.734375 30.519531 56.359375 30.011719 56.4375 29.308594 C 56.519531 28.597656 56.003906 27.972656 55.304688 27.894531 L 53.183594 27.660156 C 52.832031 27.625 52.507812 27.71875 52.238281 27.9375 C 51.328125 28.664062 51.789062 30.085938 52.886719 30.207031 Z M 51.949219 38.789062 L 54.089844 39.027344 C 54.789062 39.101562 55.421875 38.59375 55.5 37.890625 C 55.578125 37.191406 55.066406 36.554688 54.367188 36.480469 L 52.230469 36.242188 C 51.894531 36.203125 51.5625 36.304688 51.292969 36.519531 C 50.398438 37.230469 50.824219 38.667969 51.949219 38.789062 Z M 52.421875 34.5 L 54.554688 34.734375 C 55.261719 34.808594 55.894531 34.304688 55.972656 33.601562 C 56.042969 32.886719 55.53125 32.261719 54.839844 32.1875 L 52.703125 31.953125 C 52.375 31.910156 52.035156 32.015625 51.765625 32.226562 C 50.871094 32.933594 51.300781 34.375 52.421875 34.5 Z M 36.59375 30.460938 C 36.492188 29.929688 36.914062 29.425781 37.453125 29.425781 L 41.6875 29.425781 C 42.4375 29.425781 43.042969 28.816406 43.042969 28.070312 L 43.042969 27.832031 C 43.042969 27.085938 42.4375 26.476562 41.6875 26.476562 L 36.378906 26.476562 C 36.089844 26.476562 35.859375 26.546875 35.617188 26.707031 L 29.402344 30.851562 C 28.222656 31.640625 27.464844 32.6875 27.097656 34.0625 L 25.765625 39.0625 C 25.464844 40.191406 24.96875 41.125 24.199219 42.003906 L 16.566406 50.683594 L 16.535156 50.640625 C 13.992188 46.730469 12.511719 42.054688 12.511719 37.035156 C 12.511719 27.210938 18.203125 18.472656 26.898438 14.394531 C 27.519531 15.203125 28.488281 15.726562 29.578125 15.726562 C 31.433594 15.726562 32.9375 14.21875 32.9375 12.363281 C 32.9375 10.515625 31.433594 9.003906 29.578125 9.003906 C 27.570312 9.003906 26.003906 10.75 26.238281 12.773438 C 16.886719 17.125 10.757812 26.507812 10.757812 37.035156 C 10.757812 47.699219 17.066406 57.226562 26.664062 61.484375 L 27.371094 59.890625 L 30.78125 52.921875 C 31.324219 52.070312 32.121094 51.652344 32.828125 51.28125 C 33.402344 50.976562 33.90625 50.710938 34.191406 50.253906 C 35.042969 48.921875 35.433594 46.917969 35.945312 45.3125 C 36.5 43.617188 36.980469 32.515625 36.59375 30.460938 Z M 64.234375 37.035156 C 64.234375 49.402344 55.769531 60.039062 43.988281 62.980469 C 43.8125 64.664062 42.378906 65.980469 40.648438 65.980469 C 38.796875 65.980469 37.285156 64.472656 37.285156 62.621094 C 37.285156 60.769531 38.796875 59.261719 40.648438 59.261719 C 42.003906 59.261719 43.183594 60.074219 43.71875 61.246094 C 54.660156 58.441406 62.484375 48.546875 62.484375 37.035156 C 62.484375 30.542969 60.003906 24.546875 55.839844 20.066406 C 54.933594 21.328125 54.128906 23 54.011719 24.355469 L 53.878906 25.972656 L 53.367188 25.917969 C 51.703125 25.734375 50.199219 26.945312 50.019531 28.601562 C 49.933594 29.40625 50.160156 30.199219 50.671875 30.832031 C 50.671875 30.835938 50.679688 30.84375 50.6875 30.847656 C 50.679688 30.851562 50.671875 30.855469 50.664062 30.859375 C 50.035156 31.367188 49.640625 32.089844 49.546875 32.894531 C 49.460938 33.699219 49.695312 34.488281 50.199219 35.125 C 50.207031 35.128906 50.207031 35.132812 50.214844 35.136719 C 50.207031 35.140625 50.199219 35.148438 50.199219 35.148438 C 48.863281 36.210938 48.671875 38.125 49.742188 39.429688 C 49.734375 39.4375 49.726562 39.4375 49.726562 39.441406 C 49.089844 39.953125 48.695312 40.671875 48.609375 41.476562 C 48.5625 41.851562 48.585938 42.222656 48.6875 42.578125 L 48.199219 46.867188 L 46.726562 49.933594 C 46.515625 50.363281 45.980469 50.558594 45.539062 50.347656 C 45.222656 50.191406 45.136719 50.035156 45.105469 49.933594 C 44.996094 49.601562 45.160156 49.078125 45.390625 48.554688 L 46.207031 46.914062 L 46.253906 46.679688 L 46.648438 40.9375 C 46.679688 40.457031 46.316406 40.035156 45.835938 40.003906 C 45.34375 39.96875 44.933594 40.335938 44.894531 40.820312 L 44.515625 46.398438 L 44.308594 46.800781 C 44.128906 47.125 43.941406 47.480469 43.78125 47.847656 L 42.339844 50.722656 C 41.828125 51.757812 40.421875 51.425781 40.199219 50.703125 C 40.089844 50.378906 40.160156 49.945312 40.308594 49.476562 L 41.796875 46.449219 L 41.867188 46.238281 L 42.050781 40.90625 C 42.066406 40.421875 41.6875 40.019531 41.207031 40.003906 C 40.726562 39.984375 40.308594 40.367188 40.300781 40.847656 L 40.136719 45.847656 C 40.027344 46.042969 39.910156 46.265625 39.78125 46.496094 C 39.390625 47.210938 38.957031 48.011719 38.679688 48.828125 L 37.679688 50.882812 C 37.316406 51.625 36.300781 51.796875 35.710938 51.128906 C 36.671875 49.597656 37.074219 47.5625 37.625 45.847656 C 38.175781 44.121094 38.640625 34.804688 38.421875 31.179688 L 41.6875 31.179688 C 43.398438 31.179688 44.804688 29.78125 44.804688 28.070312 L 44.804688 27.832031 C 44.804688 26.117188 43.398438 24.722656 41.6875 24.722656 L 36.378906 24.722656 C 35.269531 24.722656 34.734375 25.183594 33.882812 25.753906 L 35.175781 22.507812 C 35.609375 21.402344 36.285156 20.582031 37.269531 19.925781 L 39.578125 18.386719 C 40.59375 17.710938 41.339844 16.902344 41.925781 15.84375 L 43.6875 12.671875 L 44.324219 11.171875 L 44.460938 11.210938 C 50.074219 12.703125 54.949219 16.007812 58.460938 20.429688 C 62.082031 24.992188 64.234375 30.761719 64.234375 37.035156 Z M 64.234375 37.035156 " fill-opacity="1" fill-rule="evenodd"/></g></svg>