<svg xmlns="http://www.w3.org/2000/svg" xmlns:xlink="http://www.w3.org/1999/xlink" width="100" zoomAndPan="magnify" viewBox="0 0 75 74.999997" height="100" preserveAspectRatio="xMidYMid meet" version="1.0"><defs><clipPath id="c6f9b0e31f"><path d="M 9.644531 9.644531 L 27 9.644531 L 27 27 L 9.644531 27 Z M 9.644531 9.644531 " clip-rule="nonzero"/></clipPath><clipPath id="1fa3d696e5"><path d="M 9.644531 48 L 27 48 L 27 65.144531 L 9.644531 65.144531 Z M 9.644531 48 " clip-rule="nonzero"/></clipPath><clipPath id="491ac08936"><path d="M 48 9.644531 L 65.144531 9.644531 L 65.144531 27 L 48 27 Z M 48 9.644531 " clip-rule="nonzero"/></clipPath><clipPath id="247e100ef9"><path d="M 48 48 L 65.144531 48 L 65.144531 65.144531 L 48 65.144531 Z M 48 48 " clip-rule="nonzero"/></clipPath></defs><path fill="#dca74b" d="M 14.351562 27.855469 C 13.078125 30.914062 12.429688 34.15625 12.429688 37.496094 C 12.429688 40.835938 13.078125 44.078125 14.351562 47.136719 L 16.066406 46.421875 C 14.886719 43.59375 14.289062 40.589844 14.289062 37.496094 C 14.289062 34.402344 14.886719 31.398438 16.066406 28.570312 Z M 14.351562 27.855469 " fill-opacity="1" fill-rule="nonzero"/><path fill="#dca74b" d="M 47.136719 60.640625 L 46.421875 58.925781 C 40.761719 61.285156 34.230469 61.285156 28.570312 58.925781 L 27.855469 60.640625 C 30.914062 61.914062 34.15625 62.5625 37.496094 62.5625 C 40.835938 62.5625 44.078125 61.914062 47.136719 60.640625 Z M 47.136719 60.640625 " fill-opacity="1" fill-rule="nonzero"/><path fill="#dca74b" d="M 60.632812 47.152344 C 61.910156 44.089844 62.5625 40.84375 62.5625 37.496094 C 62.5625 34.15625 61.914062 30.914062 60.640625 27.855469 L 58.925781 28.570312 C 60.105469 31.398438 60.703125 34.402344 60.703125 37.496094 C 60.703125 40.59375 60.101562 43.601562 58.917969 46.4375 Z M 60.632812 47.152344 " fill-opacity="1" fill-rule="nonzero"/><path fill="#dca74b" d="M 27.855469 14.351562 L 28.570312 16.066406 C 34.234375 13.703125 40.773438 13.707031 46.4375 16.074219 L 47.152344 14.359375 C 44.089844 13.082031 40.84375 12.429688 37.496094 12.429688 C 34.15625 12.429688 30.914062 13.078125 27.855469 14.351562 Z M 27.855469 14.351562 " fill-opacity="1" fill-rule="nonzero"/><path fill="#dca74b" d="M 45.296875 27.476562 L 49.003906 24.683594 L 50.121094 26.164062 L 46.414062 28.957031 Z M 45.296875 27.476562 " fill-opacity="1" fill-rule="nonzero"/><path fill="#dca74b" d="M 24.871094 26.164062 L 25.988281 24.683594 L 29.695312 27.476562 L 28.578125 28.957031 Z M 24.871094 26.164062 " fill-opacity="1" fill-rule="nonzero"/><path fill="#dca74b" d="M 24.871094 48.828125 L 28.578125 46.035156 L 29.695312 47.515625 L 25.988281 50.308594 Z M 24.871094 48.828125 " fill-opacity="1" fill-rule="nonzero"/><path fill="#dca74b" d="M 45.296875 47.515625 L 46.414062 46.035156 L 50.121094 48.828125 L 49.003906 50.308594 Z M 45.296875 47.515625 " fill-opacity="1" fill-rule="nonzero"/><path fill="#dca74b" d="M 41.210938 26.355469 C 41.210938 26.847656 41.113281 27.324219 40.925781 27.777344 C 40.738281 28.230469 40.46875 28.632812 40.121094 28.980469 C 39.773438 29.328125 39.371094 29.597656 38.917969 29.785156 C 38.460938 29.976562 37.988281 30.070312 37.496094 30.070312 C 37.003906 30.070312 36.53125 29.976562 36.074219 29.785156 C 35.621094 29.597656 35.21875 29.328125 34.871094 28.980469 C 34.523438 28.632812 34.253906 28.230469 34.066406 27.777344 C 33.878906 27.324219 33.78125 26.847656 33.78125 26.355469 C 33.78125 25.863281 33.878906 25.390625 34.066406 24.933594 C 34.253906 24.480469 34.523438 24.078125 34.871094 23.730469 C 35.21875 23.382812 35.621094 23.113281 36.074219 22.925781 C 36.53125 22.738281 37.003906 22.644531 37.496094 22.644531 C 37.988281 22.644531 38.460938 22.738281 38.917969 22.925781 C 39.371094 23.113281 39.773438 23.382812 40.121094 23.730469 C 40.46875 24.078125 40.738281 24.480469 40.925781 24.933594 C 41.113281 25.390625 41.210938 25.863281 41.210938 26.355469 Z M 41.210938 26.355469 " fill-opacity="1" fill-rule="nonzero"/><path fill="#dca74b" d="M 30.996094 33.78125 L 30.996094 41.210938 L 33.78125 43.066406 L 33.78125 55.132812 L 41.210938 55.132812 L 41.210938 43.066406 L 43.996094 41.210938 L 43.996094 33.78125 C 43.996094 31.730469 42.332031 30.070312 40.28125 30.070312 L 34.710938 30.070312 C 32.660156 30.070312 30.996094 31.730469 30.996094 33.78125 Z M 30.996094 33.78125 " fill-opacity="1" fill-rule="nonzero"/><path fill="#dca74b" d="M 20.785156 17.074219 C 20.785156 17.441406 20.714844 17.796875 20.574219 18.140625 C 20.433594 18.480469 20.230469 18.78125 19.96875 19.042969 C 19.710938 19.304688 19.410156 19.503906 19.066406 19.644531 C 18.726562 19.789062 18.371094 19.859375 18 19.859375 C 17.632812 19.859375 17.277344 19.789062 16.9375 19.644531 C 16.59375 19.503906 16.292969 19.304688 16.03125 19.042969 C 15.769531 18.78125 15.570312 18.480469 15.429688 18.140625 C 15.285156 17.796875 15.214844 17.441406 15.214844 17.074219 C 15.214844 16.703125 15.285156 16.347656 15.429688 16.007812 C 15.570312 15.667969 15.769531 15.363281 16.03125 15.105469 C 16.292969 14.84375 16.59375 14.640625 16.9375 14.5 C 17.277344 14.359375 17.632812 14.289062 18 14.289062 C 18.371094 14.289062 18.726562 14.359375 19.066406 14.5 C 19.410156 14.640625 19.710938 14.84375 19.96875 15.105469 C 20.230469 15.363281 20.433594 15.667969 20.574219 16.007812 C 20.714844 16.347656 20.785156 16.703125 20.785156 17.074219 Z M 20.785156 17.074219 " fill-opacity="1" fill-rule="nonzero"/><g clip-path="url(#c6f9b0e31f)"><path fill="#dca74b" d="M 13.359375 24.945312 C 14.734375 25.867188 16.339844 26.355469 18 26.355469 C 19.664062 26.355469 21.269531 25.867188 22.644531 24.945312 C 24.96875 23.390625 26.355469 20.796875 26.355469 18 C 26.355469 13.394531 22.609375 9.644531 18 9.644531 C 13.394531 9.644531 9.644531 13.394531 9.644531 18 C 9.644531 20.796875 11.035156 23.390625 13.359375 24.945312 Z M 18 11.503906 C 21.585938 11.503906 24.5 14.417969 24.5 18 C 24.5 19.777344 23.769531 21.445312 22.515625 22.65625 C 22.105469 21.050781 20.664062 19.859375 18.929688 19.859375 L 17.074219 19.859375 C 15.339844 19.859375 13.894531 21.050781 13.488281 22.65625 C 12.234375 21.445312 11.503906 19.777344 11.503906 18 C 11.503906 14.417969 14.417969 11.503906 18 11.503906 Z M 18 11.503906 " fill-opacity="1" fill-rule="nonzero"/></g><path fill="#dca74b" d="M 20.785156 56.0625 C 20.785156 56.433594 20.714844 56.785156 20.574219 57.128906 C 20.433594 57.46875 20.230469 57.769531 19.96875 58.03125 C 19.710938 58.292969 19.410156 58.492188 19.066406 58.636719 C 18.726562 58.777344 18.371094 58.847656 18 58.847656 C 17.632812 58.847656 17.277344 58.777344 16.9375 58.636719 C 16.59375 58.492188 16.292969 58.292969 16.03125 58.03125 C 15.769531 57.769531 15.570312 57.46875 15.429688 57.128906 C 15.285156 56.785156 15.214844 56.433594 15.214844 56.0625 C 15.214844 55.691406 15.285156 55.335938 15.429688 54.996094 C 15.570312 54.65625 15.769531 54.355469 16.03125 54.09375 C 16.292969 53.832031 16.59375 53.628906 16.9375 53.488281 C 17.277344 53.347656 17.632812 53.277344 18 53.277344 C 18.371094 53.277344 18.726562 53.347656 19.066406 53.488281 C 19.410156 53.628906 19.710938 53.832031 19.96875 54.09375 C 20.230469 54.355469 20.433594 54.65625 20.574219 54.996094 C 20.714844 55.335938 20.785156 55.691406 20.785156 56.0625 Z M 20.785156 56.0625 " fill-opacity="1" fill-rule="nonzero"/><g clip-path="url(#1fa3d696e5)"><path fill="#dca74b" d="M 13.359375 63.933594 C 14.734375 64.855469 16.339844 65.34375 18 65.34375 C 19.664062 65.34375 21.269531 64.855469 22.644531 63.933594 C 24.96875 62.382812 26.355469 59.785156 26.355469 56.992188 C 26.355469 52.382812 22.609375 48.636719 18 48.636719 C 13.394531 48.636719 9.644531 52.382812 9.644531 56.992188 C 9.644531 59.785156 11.035156 62.382812 13.359375 63.933594 Z M 18 50.492188 C 21.585938 50.492188 24.5 53.40625 24.5 56.992188 C 24.5 58.765625 23.769531 60.433594 22.515625 61.644531 C 22.105469 60.039062 20.664062 58.847656 18.929688 58.847656 L 17.074219 58.847656 C 15.339844 58.847656 13.894531 60.039062 13.488281 61.644531 C 12.234375 60.433594 11.503906 58.769531 11.503906 56.992188 C 11.503906 53.40625 14.417969 50.492188 18 50.492188 Z M 18 50.492188 " fill-opacity="1" fill-rule="nonzero"/></g><path fill="#dca74b" d="M 59.777344 17.074219 C 59.777344 17.441406 59.703125 17.796875 59.5625 18.140625 C 59.421875 18.480469 59.222656 18.78125 58.960938 19.042969 C 58.699219 19.304688 58.398438 19.503906 58.054688 19.644531 C 57.714844 19.789062 57.359375 19.859375 56.992188 19.859375 C 56.621094 19.859375 56.265625 19.789062 55.925781 19.644531 C 55.582031 19.503906 55.28125 19.304688 55.023438 19.042969 C 54.761719 18.78125 54.558594 18.480469 54.417969 18.140625 C 54.277344 17.796875 54.207031 17.441406 54.207031 17.074219 C 54.207031 16.703125 54.277344 16.347656 54.417969 16.007812 C 54.558594 15.667969 54.761719 15.363281 55.023438 15.105469 C 55.28125 14.84375 55.582031 14.640625 55.925781 14.5 C 56.265625 14.359375 56.621094 14.289062 56.992188 14.289062 C 57.359375 14.289062 57.714844 14.359375 58.054688 14.5 C 58.398438 14.640625 58.699219 14.84375 58.960938 15.105469 C 59.222656 15.363281 59.421875 15.667969 59.5625 16.007812 C 59.703125 16.347656 59.777344 16.703125 59.777344 17.074219 Z M 59.777344 17.074219 " fill-opacity="1" fill-rule="nonzero"/><g clip-path="url(#491ac08936)"><path fill="#dca74b" d="M 56.992188 9.644531 C 52.382812 9.644531 48.636719 13.394531 48.636719 18 C 48.636719 20.796875 50.023438 23.390625 52.347656 24.945312 C 53.722656 25.867188 55.328125 26.355469 56.992188 26.355469 C 58.652344 26.355469 60.257812 25.867188 61.632812 24.945312 C 63.957031 23.390625 65.34375 20.796875 65.34375 18 C 65.34375 13.394531 61.597656 9.644531 56.992188 9.644531 Z M 61.503906 22.65625 C 61.097656 21.050781 59.652344 19.859375 57.917969 19.859375 L 56.0625 19.859375 C 54.328125 19.859375 52.886719 21.050781 52.476562 22.65625 C 51.222656 21.445312 50.492188 19.777344 50.492188 18 C 50.492188 14.417969 53.40625 11.503906 56.992188 11.503906 C 60.574219 11.503906 63.488281 14.417969 63.488281 18 C 63.488281 19.777344 62.757812 21.445312 61.503906 22.65625 Z M 61.503906 22.65625 " fill-opacity="1" fill-rule="nonzero"/></g><path fill="#dca74b" d="M 59.777344 56.0625 C 59.777344 56.433594 59.703125 56.785156 59.5625 57.128906 C 59.421875 57.46875 59.222656 57.769531 58.960938 58.03125 C 58.699219 58.292969 58.398438 58.492188 58.054688 58.636719 C 57.714844 58.777344 57.359375 58.847656 56.992188 58.847656 C 56.621094 58.847656 56.265625 58.777344 55.925781 58.636719 C 55.582031 58.492188 55.28125 58.292969 55.023438 58.03125 C 54.761719 57.769531 54.558594 57.46875 54.417969 57.128906 C 54.277344 56.785156 54.207031 56.433594 54.207031 56.0625 C 54.207031 55.691406 54.277344 55.335938 54.417969 54.996094 C 54.558594 54.65625 54.761719 54.355469 55.023438 54.09375 C 55.28125 53.832031 55.582031 53.628906 55.925781 53.488281 C 56.265625 53.347656 56.621094 53.277344 56.992188 53.277344 C 57.359375 53.277344 57.714844 53.347656 58.054688 53.488281 C 58.398438 53.628906 58.699219 53.832031 58.960938 54.09375 C 59.222656 54.355469 59.421875 54.65625 59.5625 54.996094 C 59.703125 55.335938 59.777344 55.691406 59.777344 56.0625 Z M 59.777344 56.0625 " fill-opacity="1" fill-rule="nonzero"/><g clip-path="url(#247e100ef9)"><path fill="#dca74b" d="M 56.992188 48.636719 C 52.382812 48.636719 48.636719 52.382812 48.636719 56.992188 C 48.636719 59.785156 50.023438 62.382812 52.347656 63.933594 C 53.722656 64.855469 55.328125 65.34375 56.992188 65.34375 C 58.652344 65.34375 60.257812 64.855469 61.632812 63.933594 C 63.957031 62.382812 65.34375 59.785156 65.34375 56.992188 C 65.34375 52.382812 61.597656 48.636719 56.992188 48.636719 Z M 61.503906 61.644531 C 61.097656 60.039062 59.652344 58.847656 57.917969 58.847656 L 56.0625 58.847656 C 54.328125 58.847656 52.886719 60.039062 52.476562 61.644531 C 51.222656 60.433594 50.492188 58.769531 50.492188 56.992188 C 50.492188 53.40625 53.40625 50.492188 56.992188 50.492188 C 60.574219 50.492188 63.488281 53.40625 63.488281 56.992188 C 63.488281 58.765625 62.757812 60.433594 61.503906 61.644531 Z M 61.503906 61.644531 " fill-opacity="1" fill-rule="nonzero"/></g></svg>