<svg xmlns="http://www.w3.org/2000/svg" xmlns:xlink="http://www.w3.org/1999/xlink" width="100" zoomAndPan="magnify" viewBox="0 0 75 74.999997" height="100" preserveAspectRatio="xMidYMid meet" version="1.0"><defs><clipPath id="d25091e45b"><path d="M 7.5 10.460938 L 69 10.460938 L 69 65.960938 L 7.5 65.960938 Z M 7.5 10.460938 " clip-rule="nonzero"/></clipPath></defs><g clip-path="url(#d25091e45b)"><path fill="#dca74b" d="M 62.308594 27.0625 L 53.617188 32.957031 C 53.578125 32.984375 53.53125 32.984375 53.488281 32.964844 C 53.449219 32.941406 53.421875 32.902344 53.421875 32.855469 L 53.421875 30.558594 C 53.421875 30.519531 53.410156 30.488281 53.378906 30.464844 C 53.351562 30.441406 53.316406 30.429688 53.277344 30.4375 C 47.902344 31.441406 45.546875 35.589844 44.835938 41.355469 C 44.828125 41.417969 44.773438 41.464844 44.710938 41.464844 L 43.6875 41.464844 C 43.617188 41.464844 43.5625 41.410156 43.5625 41.339844 L 43.5625 28.8125 C 43.5625 28.785156 43.570312 28.757812 43.589844 28.734375 C 45.898438 25.886719 48.976562 23.957031 53.3125 23.523438 C 53.375 23.519531 53.421875 23.464844 53.421875 23.402344 L 53.421875 21.070312 C 53.421875 21.023438 53.449219 20.980469 53.488281 20.960938 C 53.53125 20.9375 53.578125 20.941406 53.617188 20.96875 L 62.308594 26.859375 C 62.34375 26.882812 62.363281 26.921875 62.363281 26.960938 C 62.363281 27.003906 62.34375 27.039062 62.308594 27.0625 Z M 67.492188 30.371094 C 66.519531 30.011719 65.445312 30.40625 64.9375 31.3125 L 58.78125 42.3125 C 58.199219 43.351562 57.511719 44.132812 56.558594 44.84375 C 56.558594 44.84375 56.558594 44.847656 56.554688 44.847656 L 54.613281 46.230469 C 54.5625 46.265625 54.546875 46.339844 54.582031 46.394531 C 55.457031 47.824219 55.054688 49.703125 53.652344 50.644531 L 48.238281 54.261719 C 47.816406 54.542969 47.242188 54.429688 46.960938 54.007812 C 46.675781 53.585938 46.789062 53.011719 47.210938 52.730469 L 52.625 49.109375 C 52.917969 48.914062 53.105469 48.613281 53.171875 48.289062 C 53.253906 47.859375 53.148438 47.59375 52.941406 47.246094 C 52.347656 46.246094 50.894531 45.886719 49.839844 46.59375 L 43.453125 50.863281 C 42.074219 51.78125 41.140625 52.941406 40.53125 54.480469 C 39.957031 55.933594 39.507812 57.449219 39.179688 59.019531 C 39.175781 59.027344 39.175781 59.035156 39.175781 59.042969 L 39.175781 65.835938 C 39.175781 65.90625 39.230469 65.960938 39.300781 65.960938 L 48.824219 65.960938 C 48.886719 65.960938 48.941406 65.914062 48.945312 65.847656 C 49.152344 63.558594 48.925781 61.226562 50.75 59.640625 C 52.464844 58.148438 54.582031 57.453125 56.648438 56.140625 C 58.761719 54.800781 60.226562 53.109375 61.492188 50.957031 C 63.121094 48.175781 64.535156 44.703125 65.714844 41.710938 C 66.84375 38.855469 67.863281 35.933594 68.773438 32.945312 C 69.097656 31.886719 68.542969 30.765625 67.492188 30.371094 Z M 9.101562 30.371094 C 8.046875 30.765625 7.492188 31.886719 7.816406 32.945312 C 8.730469 35.933594 9.75 38.855469 10.875 41.714844 C 12.058594 44.703125 13.46875 48.175781 15.101562 50.957031 C 16.363281 53.109375 17.828125 54.800781 19.945312 56.140625 C 22.011719 57.453125 24.125 58.148438 25.84375 59.640625 C 27.667969 61.226562 27.4375 63.558594 27.644531 65.847656 C 27.652344 65.914062 27.703125 65.960938 27.769531 65.960938 L 37.292969 65.960938 C 37.359375 65.960938 37.414062 65.90625 37.414062 65.835938 L 37.414062 59.042969 C 37.414062 59.035156 37.414062 59.027344 37.414062 59.019531 C 37.085938 57.449219 36.636719 55.933594 36.0625 54.480469 C 35.453125 52.941406 34.515625 51.78125 33.140625 50.863281 L 26.753906 46.59375 C 25.695312 45.886719 24.246094 46.246094 23.652344 47.246094 C 23.445312 47.59375 23.335938 47.859375 23.421875 48.289062 C 23.484375 48.613281 23.671875 48.914062 23.96875 49.109375 L 29.378906 52.730469 C 29.804688 53.011719 29.914062 53.585938 29.632812 54.007812 C 29.347656 54.429688 28.777344 54.542969 28.355469 54.261719 L 22.941406 50.644531 C 21.539062 49.703125 21.132812 47.824219 22.011719 46.394531 C 22.042969 46.339844 22.03125 46.265625 21.976562 46.230469 L 20.035156 44.847656 C 20.035156 44.847656 20.035156 44.84375 20.035156 44.84375 C 19.078125 44.132812 18.390625 43.351562 17.808594 42.3125 L 11.652344 31.3125 C 11.144531 30.40625 10.074219 30.011719 9.101562 30.371094 Z M 41.746094 19.550781 C 41.746094 19.480469 41.800781 19.425781 41.867188 19.425781 L 44.1875 19.425781 C 44.234375 19.425781 44.277344 19.402344 44.296875 19.359375 C 44.320312 19.320312 44.316406 19.273438 44.289062 19.234375 L 38.398438 10.542969 C 38.375 10.507812 38.339844 10.488281 38.296875 10.488281 C 38.253906 10.488281 38.21875 10.507812 38.195312 10.542969 L 32.300781 19.234375 C 32.273438 19.273438 32.273438 19.320312 32.292969 19.359375 C 32.316406 19.402344 32.355469 19.425781 32.402344 19.425781 L 34.722656 19.425781 C 34.792969 19.425781 34.847656 19.480469 34.847656 19.550781 L 34.847656 41.316406 C 34.847656 41.386719 34.902344 41.441406 34.972656 41.441406 L 41.621094 41.441406 C 41.691406 41.441406 41.746094 41.386719 41.746094 41.316406 Z M 14.363281 27.019531 C 14.332031 26.996094 14.3125 26.960938 14.3125 26.917969 C 14.3125 26.875 14.332031 26.839844 14.363281 26.816406 L 23.058594 20.921875 C 23.09375 20.898438 23.140625 20.894531 23.183594 20.917969 C 23.226562 20.9375 23.25 20.980469 23.25 21.027344 L 23.25 23.359375 C 23.25 23.421875 23.296875 23.472656 23.359375 23.480469 C 27.644531 23.910156 30.703125 25.796875 33 28.59375 C 33.019531 28.613281 33.03125 28.640625 33.03125 28.671875 L 33.03125 41.296875 C 33.03125 41.363281 32.972656 41.421875 32.90625 41.421875 L 31.960938 41.421875 C 31.898438 41.421875 31.84375 41.375 31.835938 41.3125 C 31.125 35.546875 28.769531 31.398438 23.394531 30.394531 C 23.359375 30.386719 23.324219 30.394531 23.292969 30.417969 C 23.265625 30.445312 23.25 30.476562 23.25 30.515625 L 23.25 32.8125 C 23.25 32.859375 23.226562 32.898438 23.183594 32.921875 C 23.140625 32.941406 23.09375 32.941406 23.054688 32.914062 Z M 14.363281 27.019531 " fill-opacity="1" fill-rule="evenodd"/></g></svg>