<svg xmlns="http://www.w3.org/2000/svg" xmlns:xlink="http://www.w3.org/1999/xlink" width="100" zoomAndPan="magnify" viewBox="0 0 75 74.999997" height="100" preserveAspectRatio="xMidYMid meet" version="1.0"><defs><clipPath id="d6f36ab4c3"><path d="M 8.296875 8.296875 L 66.796875 8.296875 L 66.796875 66.796875 L 8.296875 66.796875 Z M 8.296875 8.296875 " clip-rule="nonzero"/></clipPath></defs><path fill="#dca74b" d="M 56.613281 18.234375 C 54.683594 19.332031 52.613281 20.183594 50.496094 20.84375 L 50.050781 20.984375 L 49.8125 20.582031 C 49.125 19.410156 48.363281 18.28125 47.535156 17.199219 C 45.738281 14.855469 43.648438 12.761719 41.304688 10.964844 L 39.476562 9.566406 L 41.75 9.917969 C 47.386719 10.78125 52.601562 13.367188 56.726562 17.296875 L 57.300781 17.84375 Z M 48.59375 21.378906 L 49.367188 21.183594 L 48.953125 20.503906 C 46.386719 16.289062 42.898438 12.714844 38.757812 10.03125 L 37.847656 9.441406 L 37.847656 22.730469 L 38.449219 22.71875 C 41.855469 22.652344 45.292969 22.222656 48.59375 21.378906 Z M 36.539062 22.71875 C 33.132812 22.652344 29.695312 22.222656 26.394531 21.382812 L 25.621094 21.183594 L 26.035156 20.503906 C 28.601562 16.289062 32.089844 12.714844 36.230469 10.03125 L 37.140625 9.441406 L 37.140625 22.730469 Z M 18.261719 17.296875 L 17.6875 17.84375 L 18.375 18.234375 C 20.304688 19.332031 22.375 20.183594 24.492188 20.84375 L 24.9375 20.984375 L 25.175781 20.582031 C 25.863281 19.410156 26.625 18.28125 27.453125 17.199219 C 29.25 14.855469 31.339844 12.761719 33.683594 10.964844 L 35.511719 9.566406 L 33.238281 9.917969 C 27.601562 10.78125 22.386719 13.367188 18.261719 17.296875 Z M 53.769531 43.285156 C 53.964844 43.285156 54.125 43.128906 54.125 42.933594 L 54.125 32.054688 C 54.125 31.859375 53.964844 31.703125 53.769531 31.703125 L 21.21875 31.703125 C 21.023438 31.703125 20.863281 31.859375 20.863281 32.054688 L 20.863281 43.023438 L 18.746094 45.671875 L 18.308594 44.941406 C 18.074219 44.546875 17.953125 44.097656 17.953125 43.640625 L 17.953125 31.347656 C 17.953125 29.9375 19.097656 28.789062 20.511719 28.789062 L 54.476562 28.789062 C 55.890625 28.789062 57.035156 29.9375 57.035156 31.347656 L 57.035156 43.640625 C 57.035156 45.050781 55.890625 46.199219 54.476562 46.199219 L 27.789062 46.199219 L 27.34375 43.285156 Z M 50.492188 54.152344 C 52.609375 54.808594 54.679688 55.664062 56.609375 56.757812 L 57.296875 57.148438 L 56.722656 57.695312 C 52.597656 61.621094 47.386719 64.203125 41.753906 65.070312 L 39.476562 65.421875 L 41.304688 64.023438 C 44.734375 61.398438 47.625 58.140625 49.8125 54.417969 L 50.046875 54.015625 Z M 37.847656 65.546875 L 38.757812 64.957031 C 42.894531 62.273438 46.378906 58.707031 48.941406 54.492188 L 49.355469 53.8125 L 48.585938 53.617188 C 45.28125 52.777344 41.851562 52.351562 38.445312 52.285156 L 37.847656 52.273438 Z M 36.230469 64.957031 C 32.292969 62.402344 28.929688 59.027344 26.40625 55.070312 L 25.589844 53.792969 L 28.574219 54.59375 C 28.6875 54.625 28.8125 54.59375 28.898438 54.515625 C 28.988281 54.433594 29.03125 54.3125 29.011719 54.195312 L 28.84375 53.082031 L 29.410156 52.980469 C 31.761719 52.566406 34.152344 52.339844 36.539062 52.289062 L 37.140625 52.277344 L 37.140625 65.546875 Z M 33.238281 65.070312 L 35.503906 65.417969 L 33.683594 64.023438 C 30.261719 61.398438 27.363281 58.140625 25.179688 54.421875 L 24.945312 54.023438 L 24.503906 54.15625 C 24.464844 54.167969 24.429688 54.179688 24.390625 54.191406 L 24.089844 54.289062 L 22.316406 60.914062 L 22.683594 61.144531 C 25.898438 63.164062 29.484375 64.496094 33.238281 65.070312 Z M 33.238281 65.070312 " fill-opacity="1" fill-rule="evenodd"/><g clip-path="url(#d6f36ab4c3)"><path fill="#dca74b" d="M 18.550781 60.222656 L 20.71875 52.121094 C 20.855469 51.621094 20.554688 51.105469 20.054688 50.96875 L 16.847656 50.109375 L 25.4375 39.386719 L 27.515625 52.96875 L 24.308594 52.109375 C 23.808594 51.976562 23.292969 52.273438 23.15625 52.777344 L 20.984375 60.875 Z M 10.199219 38.4375 C 10.417969 44.984375 12.902344 51.082031 17.296875 55.882812 C 17.476562 55.777344 17.660156 55.671875 17.847656 55.566406 L 18.65625 52.542969 L 14.96875 51.554688 C 14.660156 51.472656 14.417969 51.242188 14.316406 50.941406 C 14.21875 50.636719 14.277344 50.304688 14.476562 50.058594 L 17.601562 46.160156 C 17 45.464844 16.65625 44.578125 16.65625 43.640625 L 16.65625 38.4375 Z M 58.332031 36.550781 L 58.332031 31.347656 C 58.332031 29.222656 56.601562 27.496094 54.476562 27.496094 L 53.503906 27.496094 C 52.914062 25.574219 52.15625 23.722656 51.242188 21.949219 C 53.5625 21.207031 55.738281 20.261719 57.679688 19.113281 C 61.90625 23.75 64.5625 29.847656 64.789062 36.550781 Z M 51.238281 53.039062 C 52.144531 51.269531 52.902344 49.417969 53.492188 47.496094 L 54.476562 47.496094 C 56.601562 47.496094 58.332031 45.765625 58.332031 43.640625 L 58.332031 38.4375 L 64.789062 38.4375 C 64.5625 45.140625 61.90625 51.238281 57.679688 55.875 C 55.753906 54.738281 53.582031 53.789062 51.238281 53.039062 Z M 50.320312 54.714844 C 48.109375 58.484375 45.175781 61.800781 41.664062 64.488281 C 47.296875 63.625 52.367188 61.03125 56.316406 57.269531 C 54.515625 56.246094 52.492188 55.390625 50.320312 54.714844 Z M 24.578125 54.75 L 22.996094 60.644531 C 26.15625 62.628906 29.664062 63.929688 33.324219 64.488281 C 29.835938 61.816406 26.890625 58.496094 24.671875 54.71875 C 24.640625 54.730469 24.609375 54.738281 24.578125 54.75 Z M 28.421875 55.160156 L 26.902344 54.753906 C 29.371094 58.625 32.664062 61.941406 36.550781 64.464844 L 36.550781 52.878906 C 34.199219 52.925781 31.835938 53.152344 29.511719 53.5625 L 29.59375 54.109375 C 29.644531 54.421875 29.53125 54.742188 29.292969 54.953125 C 29.054688 55.164062 28.726562 55.242188 28.421875 55.160156 Z M 36.550781 47.496094 L 36.550781 50.996094 C 34.105469 51.046875 31.640625 51.277344 29.226562 51.699219 L 28.582031 47.496094 Z M 38.4375 50.996094 C 42.238281 51.070312 45.964844 51.578125 49.398438 52.5 C 50.238281 50.902344 50.949219 49.230469 51.515625 47.496094 L 38.4375 47.496094 Z M 38.4375 52.875 C 41.898438 52.941406 45.296875 53.386719 48.441406 54.1875 C 45.949219 58.285156 42.546875 61.800781 38.4375 64.464844 Z M 26.984375 16.84375 C 26.140625 17.949219 25.367188 19.097656 24.667969 20.28125 C 22.511719 19.609375 20.488281 18.757812 18.667969 17.722656 C 22.617188 13.960938 27.691406 11.363281 33.328125 10.5 C 30.949219 12.320312 28.824219 14.441406 26.984375 16.84375 Z M 48.003906 16.84375 C 48.847656 17.949219 49.621094 19.097656 50.320312 20.28125 C 52.476562 19.609375 54.5 18.757812 56.320312 17.722656 C 52.371094 13.960938 47.296875 11.363281 41.660156 10.5 C 44.039062 12.320312 46.164062 14.441406 48.003906 16.84375 Z M 38.4375 22.132812 L 38.4375 10.523438 C 42.550781 13.191406 45.957031 16.710938 48.449219 20.8125 C 45.269531 21.621094 41.863281 22.0625 38.4375 22.132812 Z M 38.4375 23.976562 L 38.4375 27.496094 L 51.523438 27.496094 C 50.957031 25.757812 50.246094 24.082031 49.402344 22.488281 C 45.933594 23.410156 42.195312 23.90625 38.4375 23.976562 Z M 36.550781 23.976562 L 36.550781 27.496094 L 23.464844 27.496094 C 24.03125 25.757812 24.742188 24.082031 25.585938 22.488281 C 29.054688 23.410156 32.792969 23.90625 36.550781 23.976562 Z M 36.550781 22.132812 L 36.550781 10.523438 C 32.4375 13.191406 29.035156 16.710938 26.539062 20.8125 C 29.71875 21.621094 33.125 22.0625 36.550781 22.132812 Z M 16.65625 31.347656 C 16.65625 29.222656 18.386719 27.496094 20.511719 27.496094 L 21.484375 27.496094 C 22.074219 25.574219 22.832031 23.722656 23.746094 21.949219 C 21.425781 21.207031 19.25 20.261719 17.308594 19.113281 C 13.082031 23.75 10.425781 29.847656 10.199219 36.550781 L 16.65625 36.550781 Z M 53.769531 43.875 L 28.03125 43.875 L 28.296875 45.609375 L 54.476562 45.609375 C 55.5625 45.609375 56.449219 44.726562 56.449219 43.640625 L 56.449219 31.347656 C 56.449219 30.261719 55.5625 29.378906 54.476562 29.378906 L 20.511719 29.378906 C 19.425781 29.378906 18.539062 30.261719 18.539062 31.347656 L 18.539062 43.640625 C 18.539062 43.996094 18.636719 44.339844 18.816406 44.640625 L 20.277344 42.816406 L 20.277344 32.054688 C 20.277344 31.535156 20.699219 31.113281 21.21875 31.113281 L 53.769531 31.113281 C 54.289062 31.113281 54.710938 31.535156 54.710938 32.054688 L 54.710938 42.933594 C 54.710938 43.453125 54.289062 43.875 53.769531 43.875 Z M 26.976562 36.976562 L 27.742188 41.992188 L 52.828125 41.992188 L 52.828125 32.996094 L 22.160156 32.996094 L 22.160156 40.464844 L 25.308594 36.53125 C 25.542969 36.238281 25.929688 36.117188 26.289062 36.210938 C 26.648438 36.308594 26.917969 36.609375 26.976562 36.976562 Z M 58.140625 16.847656 C 52.625 11.335938 45.292969 8.296875 37.496094 8.296875 C 29.695312 8.296875 22.363281 11.335938 16.847656 16.847656 C 11.335938 22.363281 8.296875 29.695312 8.296875 37.492188 C 8.296875 41.59375 9.128906 45.5625 10.773438 49.28125 C 12.285156 52.703125 14.410156 55.761719 17.09375 58.378906 L 16.484375 60.644531 C 16.351562 61.148438 16.648438 61.664062 17.152344 61.796875 L 21.40625 62.9375 C 21.488281 62.960938 21.570312 62.972656 21.652344 62.972656 C 21.816406 62.972656 21.976562 62.929688 22.121094 62.84375 C 22.257812 62.765625 22.371094 62.652344 22.453125 62.523438 C 26.988281 65.253906 32.160156 66.691406 37.496094 66.691406 C 45.292969 66.691406 52.625 63.652344 58.140625 58.140625 C 63.65625 52.625 66.691406 45.292969 66.691406 37.492188 C 66.691406 29.695312 63.65625 22.363281 58.140625 16.847656 Z M 58.140625 16.847656 " fill-opacity="1" fill-rule="evenodd"/></g></svg>