<svg xmlns="http://www.w3.org/2000/svg" xmlns:xlink="http://www.w3.org/1999/xlink" width="100" zoomAndPan="magnify" viewBox="0 0 75 74.999997" height="100" preserveAspectRatio="xMidYMid meet" version="1.0"><defs><clipPath id="59b19cabac"><path d="M 8.167969 8.167969 L 66.667969 8.167969 L 66.667969 66.667969 L 8.167969 66.667969 Z M 8.167969 8.167969 " clip-rule="nonzero"/></clipPath></defs><path fill="#1f3c92" d="M 37.675781 25.324219 C 38.179688 25.324219 38.59375 24.914062 38.59375 24.410156 L 38.59375 22.441406 C 38.59375 21.941406 38.179688 21.527344 37.675781 21.527344 C 37.175781 21.527344 36.761719 21.941406 36.761719 22.441406 L 36.761719 24.410156 C 36.761719 24.914062 37.175781 25.324219 37.675781 25.324219 Z M 37.675781 25.324219 " fill-opacity="1" fill-rule="nonzero"/><path fill="#1f3c92" d="M 30.265625 26.699219 C 30.449219 27.019531 30.722656 27.15625 31.042969 27.15625 C 31.179688 27.15625 31.363281 27.109375 31.5 27.019531 C 31.957031 26.789062 32.097656 26.195312 31.867188 25.78125 L 30.90625 24.042969 C 30.679688 23.585938 30.082031 23.449219 29.671875 23.679688 C 29.214844 23.90625 29.078125 24.5 29.304688 24.914062 Z M 30.265625 26.699219 " fill-opacity="1" fill-rule="nonzero"/><path fill="#1f3c92" d="M 43.808594 27.0625 C 43.945312 27.15625 44.082031 27.199219 44.265625 27.199219 C 44.585938 27.199219 44.90625 27.019531 45.042969 26.742188 L 46.003906 25.003906 C 46.234375 24.546875 46.097656 24 45.636719 23.769531 C 45.179688 23.539062 44.632812 23.679688 44.402344 24.136719 L 43.441406 25.875 C 43.214844 26.238281 43.351562 26.789062 43.808594 27.0625 Z M 43.808594 27.0625 " fill-opacity="1" fill-rule="nonzero"/><path fill="#1f3c92" d="M 40.878906 54.46875 L 34.476562 54.46875 C 33.972656 54.46875 33.558594 54.878906 33.558594 55.382812 C 33.558594 55.886719 33.972656 56.296875 34.476562 56.296875 L 40.878906 56.296875 C 41.382812 56.296875 41.796875 55.886719 41.796875 55.382812 C 41.796875 54.878906 41.382812 54.46875 40.878906 54.46875 Z M 40.878906 54.46875 " fill-opacity="1" fill-rule="nonzero"/><path fill="#1f3c92" d="M 39.964844 57.214844 L 35.390625 57.214844 C 34.886719 57.214844 34.476562 57.625 34.476562 58.128906 C 34.476562 58.632812 34.886719 59.042969 35.390625 59.042969 L 39.964844 59.042969 C 40.46875 59.042969 40.878906 58.632812 40.878906 58.128906 C 40.878906 57.625 40.46875 57.214844 39.964844 57.214844 Z M 39.964844 57.214844 " fill-opacity="1" fill-rule="nonzero"/><path fill="#1f3c92" d="M 24.136719 31 L 25.78125 32.003906 C 25.917969 32.097656 26.101562 32.140625 26.238281 32.140625 C 26.558594 32.140625 26.835938 32.003906 27.019531 31.683594 C 27.292969 31.273438 27.15625 30.679688 26.699219 30.449219 L 25.050781 29.441406 C 24.640625 29.167969 24.042969 29.304688 23.816406 29.761719 C 23.585938 30.21875 23.679688 30.769531 24.136719 31 Z M 24.136719 31 " fill-opacity="1" fill-rule="nonzero"/><path fill="#1f3c92" d="M 25.417969 37.996094 C 25.417969 37.496094 25.003906 37.082031 24.5 37.082031 L 22.578125 37.082031 C 22.078125 37.082031 21.664062 37.496094 21.664062 37.996094 C 21.664062 38.5 22.078125 38.914062 22.578125 38.914062 L 24.5 38.914062 C 25.003906 38.914062 25.417969 38.5 25.417969 37.996094 Z M 25.417969 37.996094 " fill-opacity="1" fill-rule="nonzero"/><path fill="#1f3c92" d="M 48.65625 32.140625 C 48.796875 32.140625 48.976562 32.097656 49.117188 32.003906 L 50.761719 31 C 51.175781 30.722656 51.355469 30.175781 51.082031 29.761719 C 50.808594 29.351562 50.257812 29.167969 49.847656 29.441406 L 48.199219 30.449219 C 47.789062 30.722656 47.605469 31.273438 47.878906 31.683594 C 48.015625 31.957031 48.335938 32.140625 48.65625 32.140625 Z M 48.65625 32.140625 " fill-opacity="1" fill-rule="nonzero"/><path fill="#1f3c92" d="M 49.480469 37.996094 C 49.480469 38.5 49.894531 38.914062 50.394531 38.914062 L 52.316406 38.914062 C 52.820312 38.914062 53.234375 38.5 53.234375 37.996094 C 53.234375 37.496094 52.820312 37.082031 52.316406 37.082031 L 50.394531 37.082031 C 49.894531 37.082031 49.480469 37.496094 49.480469 37.996094 Z M 49.480469 37.996094 " fill-opacity="1" fill-rule="nonzero"/><path fill="#1f3c92" d="M 26.421875 37.039062 C 26.195312 40.652344 27.796875 44.082031 30.679688 46.277344 C 31.683594 47.011719 32.234375 48.109375 32.234375 49.253906 L 32.234375 51.3125 C 32.234375 52.363281 33.101562 53.507812 34.246094 53.507812 L 40.515625 53.507812 C 41.65625 53.507812 42.4375 52.363281 42.4375 51.3125 L 42.4375 49.34375 C 42.4375 48.15625 43.03125 47.011719 44.035156 46.277344 C 46.78125 44.21875 48.335938 41.109375 48.335938 37.722656 C 48.335938 34.75 47.148438 32.003906 44.953125 29.945312 C 42.710938 27.886719 39.691406 26.789062 36.578125 27.019531 C 31.136719 27.429688 26.789062 31.730469 26.421875 37.039062 Z M 32.691406 36.898438 C 33.058594 36.535156 33.605469 36.535156 33.972656 36.898438 L 36.167969 39.097656 L 40.878906 34.382812 C 41.246094 34.019531 41.796875 34.019531 42.160156 34.382812 C 42.527344 34.75 42.527344 35.296875 42.160156 35.664062 L 36.671875 41.15625 C 36.488281 41.335938 36.257812 41.429688 36.03125 41.429688 C 35.800781 41.429688 35.574219 41.335938 35.390625 41.15625 C 35.253906 41.015625 35.160156 40.835938 35.160156 40.695312 L 32.644531 38.179688 C 32.324219 37.859375 32.324219 37.265625 32.691406 36.898438 Z M 32.691406 36.898438 " fill-opacity="1" fill-rule="nonzero"/><g clip-path="url(#59b19cabac)"><path fill="#1f3c92" d="M 11.691406 41.566406 C 11.964844 43.351562 12.421875 45.089844 13.0625 46.734375 L 11.601562 47.558594 C 11.1875 47.789062 10.867188 48.199219 10.730469 48.65625 C 10.59375 49.117188 10.683594 49.617188 10.914062 50.03125 L 13.199219 53.964844 C 13.703125 54.835938 14.847656 55.15625 15.71875 54.652344 L 17.179688 53.78125 C 18.324219 55.15625 19.605469 56.433594 20.980469 57.578125 L 20.109375 59.042969 C 19.878906 59.453125 19.789062 59.957031 19.925781 60.414062 C 20.0625 60.875 20.339844 61.285156 20.796875 61.515625 L 24.777344 63.800781 C 25.050781 63.984375 25.371094 64.03125 25.691406 64.03125 C 26.332031 64.03125 26.925781 63.710938 27.292969 63.113281 L 28.160156 61.652344 C 29.855469 62.292969 31.59375 62.75 33.378906 63.023438 L 33.378906 64.898438 C 33.378906 65.90625 34.199219 66.730469 35.207031 66.730469 L 39.78125 66.730469 C 40.789062 66.730469 41.613281 65.90625 41.613281 64.898438 L 41.613281 63.023438 C 43.398438 62.75 45.136719 62.292969 46.828125 61.652344 L 47.695312 63.113281 C 48.199219 63.984375 49.34375 64.304688 50.214844 63.800781 L 54.195312 61.515625 C 54.605469 61.285156 54.925781 60.875 55.0625 60.414062 C 55.199219 59.957031 55.109375 59.453125 54.878906 59.042969 L 54.011719 57.578125 C 55.382812 56.433594 56.664062 55.199219 57.808594 53.78125 L 59.273438 54.652344 C 60.140625 55.15625 61.285156 54.835938 61.789062 53.964844 L 64.074219 50.03125 C 64.304688 49.617188 64.394531 49.117188 64.257812 48.65625 C 64.121094 48.199219 63.847656 47.789062 63.390625 47.558594 L 61.925781 46.734375 C 62.566406 45.089844 63.023438 43.351562 63.296875 41.566406 L 64.992188 41.566406 C 65.996094 41.566406 66.820312 40.742188 66.820312 39.738281 L 66.820312 35.160156 C 66.820312 34.15625 65.996094 33.332031 64.992188 33.332031 L 63.296875 33.332031 C 63.023438 31.546875 62.566406 29.808594 61.925781 28.160156 L 63.390625 27.339844 C 63.800781 27.109375 64.121094 26.699219 64.257812 26.238281 C 64.394531 25.78125 64.304688 25.277344 64.074219 24.867188 L 61.789062 20.933594 C 61.285156 20.0625 60.140625 19.742188 59.273438 20.246094 L 57.808594 21.117188 C 56.664062 19.742188 55.382812 18.460938 54.011719 17.320312 L 54.878906 15.855469 C 55.109375 15.441406 55.199219 14.941406 55.0625 14.480469 C 54.925781 14.023438 54.652344 13.613281 54.195312 13.382812 L 50.214844 11.097656 C 49.34375 10.59375 48.199219 10.914062 47.695312 11.78125 L 46.828125 13.246094 C 45.136719 12.605469 43.398438 12.148438 41.613281 11.875 L 41.613281 10.089844 C 41.613281 9.082031 40.789062 8.261719 39.78125 8.261719 L 35.160156 8.261719 C 34.15625 8.261719 33.332031 9.082031 33.332031 10.089844 L 33.332031 11.78125 C 31.546875 12.058594 29.808594 12.515625 28.117188 13.15625 L 27.246094 11.691406 C 26.742188 10.820312 25.597656 10.5 24.730469 11.003906 L 20.75 13.292969 C 20.339844 13.519531 20.019531 13.933594 19.878906 14.390625 C 19.742188 14.847656 19.835938 15.351562 20.0625 15.761719 L 20.933594 17.226562 C 19.558594 18.371094 18.28125 19.605469 17.136719 21.023438 L 15.671875 20.15625 C 14.800781 19.652344 13.660156 19.972656 13.15625 20.839844 L 10.867188 24.777344 C 10.640625 25.1875 10.546875 25.691406 10.683594 26.148438 C 10.820312 26.605469 11.097656 27.019531 11.554688 27.246094 L 13.019531 28.070312 C 12.378906 29.71875 11.921875 31.457031 11.644531 33.238281 L 10 33.238281 C 8.992188 33.238281 8.167969 34.0625 8.167969 35.070312 L 8.167969 39.644531 C 8.167969 40.652344 8.992188 41.476562 10 41.476562 L 11.691406 41.476562 Z M 37.449219 16.585938 C 49.070312 16.585938 58.496094 26.011719 58.496094 37.539062 C 58.496094 47.285156 51.769531 55.519531 42.664062 57.855469 C 42.664062 57.945312 42.664062 58.035156 42.664062 58.128906 C 42.664062 59.636719 41.429688 60.875 39.917969 60.875 L 35.34375 60.875 C 33.835938 60.875 32.597656 59.636719 32.597656 58.128906 C 32.597656 58.082031 32.597656 58.035156 32.597656 57.945312 C 23.359375 55.796875 16.402344 47.46875 16.402344 37.539062 C 16.402344 25.964844 25.828125 16.585938 37.449219 16.585938 Z M 37.449219 16.585938 " fill-opacity="1" fill-rule="nonzero"/></g></svg>