<svg xmlns="http://www.w3.org/2000/svg" xmlns:xlink="http://www.w3.org/1999/xlink" width="100" zoomAndPan="magnify" viewBox="0 0 75 74.999997" height="100" preserveAspectRatio="xMidYMid meet" version="1.0"><defs><clipPath id="b8df0e2f5f"><path d="M 9 7.5 L 66 7.5 L 66 67 L 9 67 Z M 9 7.5 " clip-rule="nonzero"/></clipPath></defs><g clip-path="url(#b8df0e2f5f)"><path fill="#1f3c92" d="M 19.558594 54.273438 C 19.558594 56.171875 18.019531 57.714844 16.117188 57.714844 C 14.214844 57.714844 12.675781 56.171875 12.675781 54.273438 C 12.675781 52.371094 14.214844 50.828125 16.117188 50.828125 C 18.019531 50.828125 19.558594 52.371094 19.558594 54.273438 Z M 37.496094 14.378906 C 39.394531 14.378906 40.9375 12.835938 40.9375 10.9375 C 40.9375 9.035156 39.394531 7.496094 37.496094 7.496094 C 35.59375 7.496094 34.054688 9.035156 34.054688 10.9375 C 34.054688 12.835938 35.59375 14.378906 37.496094 14.378906 Z M 54.480469 26.410156 L 58.230469 32.902344 C 58.378906 33.164062 58.410156 33.464844 58.335938 33.738281 C 58.265625 34.003906 58.097656 34.242188 57.847656 34.394531 C 57.832031 34.402344 57.816406 34.414062 57.800781 34.421875 C 57.546875 34.5625 57.253906 34.589844 56.988281 34.515625 C 56.714844 34.445312 56.46875 34.265625 56.316406 34.003906 L 52.585938 27.539062 C 52.574219 27.523438 52.566406 27.503906 52.554688 27.488281 C 52.414062 27.230469 52.390625 26.941406 52.460938 26.675781 C 52.53125 26.410156 52.699219 26.171875 52.949219 26.019531 C 52.964844 26.011719 52.980469 26 52.996094 25.992188 C 53.25 25.851562 53.542969 25.824219 53.808594 25.894531 C 54.082031 25.96875 54.328125 26.144531 54.480469 26.40625 Z M 56.691406 33.59375 C 56.847656 33.871094 57.199219 33.964844 57.476562 33.804688 C 57.75 33.644531 57.84375 33.292969 57.6875 33.019531 C 57.527344 32.742188 57.175781 32.648438 56.902344 32.808594 C 56.625 32.96875 56.53125 33.320312 56.691406 33.59375 Z M 44.148438 20.917969 C 43.488281 17.851562 40.761719 15.550781 37.496094 15.550781 C 34.230469 15.550781 31.503906 17.851562 30.839844 20.917969 C 30.761719 21.285156 31.039062 21.625 31.414062 21.625 L 43.578125 21.625 C 43.953125 21.625 44.230469 21.285156 44.148438 20.917969 Z M 25.871094 42.5 C 26.035156 42.109375 26.050781 41.648438 25.78125 41.132812 C 24.78125 39.199219 24.910156 38.3125 26.09375 38.292969 C 26.882812 38.277344 28.359375 38.953125 30.472656 40.175781 L 33.75 42.066406 C 33.761719 41.640625 33.769531 41.179688 33.773438 40.675781 C 33.726562 40.667969 33.679688 40.648438 33.636719 40.625 L 29.957031 38.5 C 29.742188 38.375 29.667969 38.097656 29.792969 37.882812 C 29.917969 37.667969 30.195312 37.59375 30.410156 37.71875 L 33.773438 39.660156 L 33.773438 38.199219 C 33.691406 38.203125 33.605469 38.183594 33.527344 38.140625 L 30.527344 36.40625 C 30.3125 36.285156 30.238281 36.007812 30.359375 35.792969 C 30.484375 35.574219 30.761719 35.5 30.976562 35.625 L 33.773438 37.242188 L 33.773438 35.863281 L 30.683594 34.078125 C 30.46875 33.953125 30.394531 33.679688 30.519531 33.460938 C 30.644531 33.246094 30.917969 33.171875 31.132812 33.296875 L 33.773438 34.820312 L 33.773438 34.203125 C 33.773438 33.960938 33.828125 33.734375 33.921875 33.527344 L 28.003906 30.109375 C 26.902344 29.472656 26.015625 29.433594 25.148438 29.394531 C 24.355469 29.355469 23.574219 29.320312 22.65625 28.910156 L 19.992188 33.527344 C 21.53125 34.761719 22.488281 37.324219 23.4375 39.859375 C 23.925781 41.171875 24.414062 42.480469 24.96875 43.558594 C 25.34375 43.285156 25.695312 42.925781 25.871094 42.5 Z M 22.421875 27.511719 L 22.097656 28.078125 C 22.09375 28.085938 22.085938 28.09375 22.082031 28.101562 L 22.082031 28.105469 L 19.019531 33.410156 L 19.015625 33.414062 C 19.007812 33.425781 19.003906 33.4375 18.996094 33.449219 L 18.6875 33.980469 C 18.683594 33.988281 18.679688 33.996094 18.671875 34.003906 C 18.523438 34.265625 18.277344 34.445312 18.003906 34.519531 C 17.738281 34.589844 17.445312 34.5625 17.1875 34.421875 C 17.175781 34.414062 17.160156 34.402344 17.144531 34.394531 C 16.894531 34.242188 16.726562 34.003906 16.652344 33.738281 C 16.582031 33.464844 16.609375 33.164062 16.761719 32.902344 L 20.496094 26.433594 C 20.5 26.425781 20.507812 26.417969 20.511719 26.410156 C 20.664062 26.144531 20.90625 25.96875 21.179688 25.898438 C 21.449219 25.824219 21.742188 25.851562 22 25.992188 C 22.003906 25.996094 22.011719 26 22.019531 26.003906 C 22.28125 26.15625 22.457031 26.402344 22.53125 26.675781 C 22.605469 26.949219 22.574219 27.25 22.421875 27.511719 Z M 18.089844 32.808594 C 17.816406 32.648438 17.464844 32.742188 17.304688 33.019531 C 17.144531 33.292969 17.238281 33.644531 17.515625 33.804688 C 17.789062 33.964844 18.140625 33.871094 18.300781 33.59375 C 18.460938 33.320312 18.363281 32.96875 18.089844 32.808594 Z M 58.875 57.714844 C 60.773438 57.714844 62.316406 56.171875 62.316406 54.273438 C 62.316406 52.371094 60.773438 50.828125 58.875 50.828125 C 56.972656 50.828125 55.433594 52.371094 55.433594 54.273438 C 55.433594 56.171875 56.972656 57.714844 58.875 57.714844 Z M 13.484375 49.910156 C 13.964844 49.714844 14.195312 49.167969 14 48.6875 C 10.554688 40.203125 11.96875 30.40625 17.777344 23.226562 C 21.371094 18.792969 26.429688 15.589844 32.214844 14.363281 C 32.722656 14.257812 33.042969 13.761719 32.9375 13.253906 C 32.828125 12.75 32.332031 12.425781 31.828125 12.53125 C 25.613281 13.847656 20.183594 17.285156 16.328125 22.046875 C 10.082031 29.765625 8.558594 40.265625 12.265625 49.390625 C 12.457031 49.871094 13.003906 50.101562 13.484375 49.910156 Z M 42.773438 14.363281 C 48.5625 15.589844 53.621094 18.792969 57.210938 23.226562 C 63.019531 30.40625 64.433594 40.203125 60.988281 48.6875 C 60.792969 49.167969 61.027344 49.714844 61.503906 49.910156 C 61.984375 50.101562 62.53125 49.871094 62.726562 49.390625 C 66.429688 40.265625 64.910156 29.765625 58.664062 22.046875 C 54.808594 17.285156 49.378906 13.847656 43.164062 12.53125 C 42.65625 12.425781 42.160156 12.75 42.054688 13.253906 C 41.945312 13.761719 42.269531 14.257812 42.773438 14.363281 Z M 65.527344 64.25 C 64.867188 61.183594 62.136719 58.886719 58.875 58.886719 C 55.609375 58.886719 52.882812 61.183594 52.21875 64.25 C 52.140625 64.617188 52.417969 64.960938 52.792969 64.960938 L 64.953125 64.960938 C 65.332031 64.960938 65.605469 64.617188 65.527344 64.25 Z M 49.710938 61.375 C 42.136719 65.546875 32.855469 65.546875 25.28125 61.375 C 24.828125 61.125 24.257812 61.292969 24.007812 61.746094 C 23.761719 62.199219 23.925781 62.769531 24.378906 63.015625 C 32.515625 67.5 42.476562 67.5 50.609375 63.015625 C 51.0625 62.769531 51.230469 62.199219 50.980469 61.746094 C 50.730469 61.292969 50.164062 61.125 49.710938 61.375 Z M 42.4375 55.085938 C 42.789062 55.085938 43.105469 55.230469 43.335938 55.460938 C 43.570312 55.691406 43.710938 56.011719 43.710938 56.359375 C 43.710938 56.710938 43.570312 57.027344 43.335938 57.257812 C 43.105469 57.492188 42.789062 57.632812 42.4375 57.632812 L 34.109375 57.632812 C 33.761719 57.632812 33.441406 57.492188 33.210938 57.257812 C 32.980469 57.027344 32.835938 56.710938 32.835938 56.359375 C 32.835938 56.011719 32.980469 55.691406 33.210938 55.460938 C 33.441406 55.230469 33.761719 55.085938 34.109375 55.085938 Z M 34.9375 56.359375 C 34.9375 56.007812 34.652344 55.722656 34.296875 55.722656 C 33.945312 55.722656 33.660156 56.007812 33.660156 56.359375 C 33.660156 56.714844 33.945312 57 34.296875 57 C 34.652344 57 34.9375 56.714844 34.9375 56.359375 Z M 42.375 37.804688 C 42.179688 37.804688 42.003906 37.882812 41.875 38.011719 C 41.742188 38.140625 41.664062 38.320312 41.664062 38.515625 L 41.664062 43.542969 C 41.664062 43.792969 41.460938 43.996094 41.210938 43.996094 C 40.960938 43.996094 40.757812 43.792969 40.757812 43.542969 L 40.757812 34.511719 C 40.757812 34.316406 40.679688 34.140625 40.550781 34.011719 C 40.417969 33.882812 40.242188 33.800781 40.046875 33.800781 C 39.851562 33.800781 39.675781 33.882812 39.546875 34.011719 C 39.414062 34.140625 39.335938 34.316406 39.335938 34.511719 L 39.335938 42.402344 C 39.335938 42.652344 39.132812 42.855469 38.882812 42.855469 C 38.632812 42.855469 38.429688 42.652344 38.429688 42.402344 L 38.429688 32.890625 C 38.429688 32.695312 38.351562 32.519531 38.222656 32.390625 C 38.089844 32.261719 37.914062 32.179688 37.71875 32.179688 C 37.523438 32.179688 37.347656 32.261719 37.21875 32.390625 C 37.085938 32.519531 37.007812 32.695312 37.007812 32.890625 L 37.007812 41.785156 C 37.007812 42.035156 36.804688 42.238281 36.554688 42.238281 C 36.304688 42.238281 36.101562 42.035156 36.101562 41.785156 L 36.101562 34.203125 C 36.101562 34.007812 36.023438 33.832031 35.894531 33.703125 C 35.761719 33.574219 35.585938 33.492188 35.390625 33.492188 C 35.195312 33.492188 35.019531 33.574219 34.890625 33.703125 C 34.757812 33.832031 34.679688 34.007812 34.679688 34.203125 L 34.679688 40.363281 C 34.679688 41.289062 34.660156 42.109375 34.617188 42.816406 C 34.617188 42.84375 34.613281 42.871094 34.609375 42.898438 C 34.523438 44.207031 34.355469 45.117188 34.066406 45.59375 C 33.414062 46.675781 32.519531 46.304688 31.246094 44.3125 C 30.890625 43.753906 30.425781 43.503906 29.945312 43.445312 C 29.40625 43.375 28.832031 43.527344 28.34375 43.75 C 29.078125 44.898438 30.078125 46.113281 31.085938 47.335938 C 33.007812 49.664062 34.949219 52.015625 35.261719 54.179688 L 41.269531 54.179688 C 41.378906 53.054688 41.777344 52.28125 42.183594 51.492188 C 42.632812 50.632812 43.085938 49.75 43.085938 48.324219 L 43.085938 38.515625 C 43.085938 38.320312 43.007812 38.140625 42.878906 38.011719 C 42.746094 37.882812 42.570312 37.804688 42.375 37.804688 Z M 16.117188 58.886719 C 12.851562 58.886719 10.125 61.183594 9.460938 64.25 C 9.382812 64.617188 9.660156 64.960938 10.035156 64.960938 L 22.199219 64.960938 C 22.574219 64.960938 22.851562 64.617188 22.769531 64.25 C 22.109375 61.183594 19.382812 58.886719 16.117188 58.886719 Z M 54.996094 33.527344 L 52.332031 28.910156 C 51.414062 29.320312 50.636719 29.355469 49.84375 29.394531 C 48.976562 29.433594 48.085938 29.472656 46.988281 30.109375 L 41.242188 33.425781 C 41.503906 33.714844 41.664062 34.09375 41.664062 34.511719 L 41.664062 34.5625 L 43.855469 33.296875 C 44.074219 33.171875 44.347656 33.246094 44.472656 33.460938 C 44.597656 33.679688 44.523438 33.953125 44.304688 34.078125 L 41.664062 35.605469 L 41.664062 37.0625 C 41.851562 36.972656 42.054688 36.914062 42.273438 36.902344 C 42.269531 36.742188 42.351562 36.585938 42.5 36.5 L 44.011719 35.625 C 44.230469 35.5 44.503906 35.574219 44.628906 35.789062 C 44.753906 36.007812 44.679688 36.28125 44.464844 36.40625 L 43.210938 37.132812 C 43.324219 37.199219 43.425781 37.28125 43.515625 37.375 C 43.714844 37.570312 43.859375 37.816406 43.933594 38.089844 L 44.582031 37.71875 C 44.796875 37.59375 45.074219 37.667969 45.199219 37.882812 C 45.324219 38.097656 45.25 38.375 45.035156 38.5 L 43.992188 39.101562 L 43.992188 40.480469 L 44.519531 40.175781 C 46.632812 38.953125 48.109375 38.277344 48.898438 38.292969 C 50.082031 38.3125 50.210938 39.199219 49.207031 41.132812 C 48.941406 41.648438 48.953125 42.109375 49.117188 42.5 C 49.296875 42.925781 49.648438 43.289062 50.019531 43.558594 C 50.574219 42.480469 51.0625 41.175781 51.554688 39.859375 C 52.5 37.324219 53.457031 34.761719 54.996094 33.527344 Z M 54.996094 33.527344 " fill-opacity="1" fill-rule="nonzero"/></g></svg>