<svg xmlns="http://www.w3.org/2000/svg" xmlns:xlink="http://www.w3.org/1999/xlink" width="100" zoomAndPan="magnify" viewBox="0 0 75 74.999997" height="100" preserveAspectRatio="xMidYMid meet" version="1.0"><defs><clipPath id="b6c75924c9"><path d="M 14.0625 7.5 L 61 7.5 L 61 67.5 L 14.0625 67.5 Z M 14.0625 7.5 " clip-rule="nonzero"/></clipPath></defs><g clip-path="url(#b6c75924c9)"><path fill="#1f3c92" d="M 37.492188 7.5 C 50.425781 7.5 60.910156 17.984375 60.910156 30.917969 C 60.910156 43.847656 50.425781 54.332031 37.492188 54.332031 C 24.5625 54.332031 14.078125 43.847656 14.078125 30.917969 C 14.078125 17.984375 24.5625 7.5 37.492188 7.5 Z M 55.074219 49.273438 C 51.820312 52.386719 47.742188 54.648438 43.199219 55.6875 L 47.203125 64.980469 L 51.523438 58.019531 L 59.546875 59.660156 Z M 33.007812 55.9375 C 28.421875 55.121094 24.257812 53.074219 20.875 50.148438 L 15.4375 61.824219 L 23.511719 60.414062 L 27.628906 67.5 Z M 37.890625 22.671875 C 37.753906 22.308594 37.234375 22.308594 37.097656 22.671875 L 35.0625 28.027344 C 35.003906 28.191406 34.859375 28.292969 34.6875 28.300781 L 28.964844 28.582031 C 28.574219 28.601562 28.414062 29.089844 28.71875 29.335938 L 33.1875 32.925781 C 33.320312 33.03125 33.375 33.199219 33.328125 33.367188 L 31.824219 38.898438 C 31.722656 39.273438 32.140625 39.574219 32.464844 39.363281 L 37.261719 36.222656 C 37.40625 36.128906 37.582031 36.128906 37.726562 36.222656 L 42.519531 39.363281 C 42.847656 39.574219 43.265625 39.273438 43.160156 38.898438 L 41.660156 33.367188 C 41.613281 33.199219 41.667969 33.03125 41.800781 32.925781 L 46.269531 29.335938 C 46.574219 29.089844 46.414062 28.601562 46.023438 28.582031 L 40.300781 28.300781 C 40.128906 28.292969 39.984375 28.191406 39.925781 28.027344 Z M 39.707031 14.359375 C 38.375 13.363281 36.613281 13.363281 35.28125 14.359375 C 31.8125 16.957031 32.597656 16.667969 28.273438 16.910156 C 26.613281 17.003906 25.261719 18.136719 24.882812 19.753906 C 23.894531 23.972656 24.3125 23.25 21.152344 26.214844 C 19.941406 27.351562 19.632812 29.085938 20.386719 30.574219 C 22.339844 34.4375 22.195312 33.613281 21.679688 37.917969 C 21.484375 39.570312 22.363281 41.09375 23.894531 41.75 C 27.875 43.457031 27.234375 42.917969 29.605469 46.542969 C 30.515625 47.9375 32.171875 48.539062 33.765625 48.058594 C 37.914062 46.804688 37.074219 46.804688 41.222656 48.058594 C 42.816406 48.539062 44.472656 47.9375 45.382812 46.542969 C 47.753906 42.917969 47.113281 43.457031 51.09375 41.75 C 52.625 41.09375 53.503906 39.570312 53.308594 37.917969 C 52.792969 33.613281 52.648438 34.4375 54.601562 30.574219 C 55.351562 29.085938 55.046875 27.351562 53.832031 26.214844 C 50.675781 23.25 51.09375 23.972656 50.105469 19.753906 C 49.726562 18.136719 48.375 17.003906 46.714844 16.910156 C 42.386719 16.667969 43.175781 16.957031 39.707031 14.359375 Z M 39.707031 14.359375 " fill-opacity="1" fill-rule="evenodd"/></g></svg>