<svg xmlns="http://www.w3.org/2000/svg" xmlns:xlink="http://www.w3.org/1999/xlink" width="100" zoomAndPan="magnify" viewBox="0 0 75 74.999997" height="100" preserveAspectRatio="xMidYMid meet" version="1.0"><defs><clipPath id="0fe5cae744"><path d="M 7.5 13 L 62 13 L 62 67.5 L 7.5 67.5 Z M 7.5 13 " clip-rule="nonzero"/></clipPath><clipPath id="bda9e92a25"><path d="M 51 7.5 L 67.5 7.5 L 67.5 24 L 51 24 Z M 51 7.5 " clip-rule="nonzero"/></clipPath></defs><g clip-path="url(#0fe5cae744)"><path fill="#1f3c92" d="M 34.402344 67.5 C 19.546875 67.5 7.5 55.457031 7.5 40.597656 C 7.5 25.742188 19.546875 13.699219 34.402344 13.699219 C 49.257812 13.699219 61.304688 25.742188 61.304688 40.597656 C 61.304688 55.457031 49.257812 67.5 34.402344 67.5 Z M 34.402344 16.144531 C 20.894531 16.144531 9.945312 27.09375 9.945312 40.597656 C 9.945312 54.105469 20.894531 65.054688 34.402344 65.054688 C 47.910156 65.054688 58.859375 54.105469 58.859375 40.597656 C 58.859375 27.089844 47.90625 16.144531 34.402344 16.144531 Z M 34.402344 16.144531 " fill-opacity="1" fill-rule="nonzero"/></g><path fill="#1f3c92" d="M 34.402344 60.164062 C 23.597656 60.164062 14.835938 51.40625 14.835938 40.597656 C 14.835938 29.792969 23.59375 21.03125 34.402344 21.03125 C 45.210938 21.03125 53.96875 29.792969 53.96875 40.597656 C 53.96875 51.40625 45.207031 60.164062 34.402344 60.164062 Z M 34.402344 23.480469 C 24.945312 23.480469 17.28125 31.144531 17.28125 40.597656 C 17.28125 50.054688 24.945312 57.71875 34.402344 57.71875 C 43.859375 57.71875 51.519531 50.054688 51.519531 40.597656 C 51.519531 31.144531 43.855469 23.480469 34.402344 23.480469 Z M 34.402344 23.480469 " fill-opacity="1" fill-rule="nonzero"/><path fill="#1f3c92" d="M 35.011719 54.050781 C 27.921875 54.050781 22.171875 48.300781 22.171875 41.210938 C 22.171875 34.121094 27.921875 28.371094 35.011719 28.371094 C 42.101562 28.371094 47.851562 34.121094 47.851562 41.210938 C 47.84375 48.296875 42.101562 54.042969 35.011719 54.050781 Z M 35.011719 30.816406 C 29.273438 30.816406 24.617188 35.472656 24.617188 41.210938 C 24.617188 46.953125 29.273438 51.605469 35.011719 51.605469 C 40.753906 51.605469 45.40625 46.953125 45.40625 41.210938 C 45.398438 35.472656 40.75 30.824219 35.011719 30.816406 Z M 35.011719 30.816406 " fill-opacity="1" fill-rule="nonzero"/><path fill="#1f3c92" d="M 35.011719 46.714844 C 31.972656 46.714844 29.507812 44.25 29.507812 41.210938 C 29.507812 38.171875 31.972656 35.707031 35.011719 35.707031 C 38.050781 35.707031 40.515625 38.171875 40.515625 41.210938 C 40.507812 44.246094 38.050781 46.707031 35.011719 46.714844 Z M 35.011719 38.15625 C 33.324219 38.15625 31.957031 39.523438 31.957031 41.210938 C 31.957031 42.898438 33.324219 44.269531 35.011719 44.269531 C 36.699219 44.269531 38.070312 42.898438 38.070312 41.210938 C 38.074219 40.308594 37.675781 39.449219 36.980469 38.875 C 36.429688 38.410156 35.730469 38.15625 35.011719 38.15625 Z M 35.011719 38.15625 " fill-opacity="1" fill-rule="nonzero"/><path fill="#1f3c92" d="M 38.070312 38.15625 C 37.746094 38.15625 37.429688 38.03125 37.199219 37.800781 C 36.722656 37.324219 36.71875 36.550781 37.195312 36.074219 C 37.195312 36.070312 37.199219 36.066406 37.199219 36.066406 L 64.101562 9.164062 C 64.578125 8.6875 65.359375 8.6875 65.839844 9.164062 C 66.316406 9.644531 66.316406 10.421875 65.839844 10.902344 L 38.9375 37.804688 C 38.707031 38.027344 38.394531 38.15625 38.070312 38.15625 Z M 38.070312 38.15625 " fill-opacity="1" fill-rule="nonzero"/><g clip-path="url(#bda9e92a25)"><path fill="#1f3c92" d="M 60.082031 23.480469 L 53.96875 23.480469 C 53.605469 23.480469 53.257812 23.320312 53.023438 23.039062 L 51.800781 21.574219 C 51.617188 21.351562 51.519531 21.074219 51.519531 20.792969 L 51.519531 14.921875 C 51.515625 14.597656 51.644531 14.28125 51.871094 14.050781 L 57.984375 7.9375 C 58.304688 7.617188 58.777344 7.5 59.207031 7.632812 C 59.640625 7.765625 59.964844 8.128906 60.050781 8.574219 L 61.140625 14.308594 L 66.59375 16.21875 C 67.015625 16.363281 67.324219 16.722656 67.402344 17.160156 C 67.5 17.621094 67.324219 18.097656 66.949219 18.382812 L 60.835938 23.273438 C 60.613281 23.421875 60.347656 23.496094 60.082031 23.480469 Z M 54.578125 21.035156 L 59.6875 21.035156 L 63.738281 17.792969 L 59.675781 16.386719 C 59.269531 16.242188 58.964844 15.898438 58.882812 15.472656 L 58.085938 11.300781 L 53.96875 15.421875 L 53.96875 20.3125 Z M 54.578125 21.035156 " fill-opacity="1" fill-rule="nonzero"/></g></svg>