<svg xmlns="http://www.w3.org/2000/svg" xmlns:xlink="http://www.w3.org/1999/xlink" width="100" zoomAndPan="magnify" viewBox="0 0 75 74.999997" height="100" preserveAspectRatio="xMidYMid meet" version="1.0"><defs><clipPath id="91554ef7bf"><path d="M 8 13.273438 L 57 13.273438 L 57 62 L 8 62 Z M 8 13.273438 " clip-rule="nonzero"/></clipPath><clipPath id="05b144188f"><path d="M 27 13.273438 L 67.5 13.273438 L 67.5 45 L 27 45 Z M 27 13.273438 " clip-rule="nonzero"/></clipPath></defs><g clip-path="url(#91554ef7bf)"><path fill="#1f3c92" d="M 43.671875 32.832031 C 43.398438 32.8125 43.128906 32.792969 42.871094 32.773438 C 41.472656 32.644531 40.019531 32.527344 38.625 32.605469 C 38.445312 32.621094 38.273438 32.699219 38.132812 32.839844 C 36.734375 34.238281 35.328125 35.558594 34.488281 36.285156 C 33.261719 37.351562 31.636719 37.832031 30.042969 37.597656 C 28.445312 37.363281 27.066406 36.453125 26.164062 35.027344 C 25.730469 34.351562 25.832031 33.445312 26.40625 32.871094 L 36.6875 22.492188 L 32.210938 17.871094 C 29.628906 15.207031 26.191406 13.742188 22.539062 13.742188 C 18.886719 13.742188 15.457031 15.207031 12.878906 17.871094 C 7.519531 23.390625 7.519531 32.367188 12.878906 37.882812 L 19.886719 45.113281 L 35.800781 61.1875 C 36.226562 61.628906 36.765625 61.714844 37.148438 61.714844 C 37.867188 61.714844 38.613281 61.378906 39.191406 60.800781 C 40.230469 59.746094 40.40625 58.207031 39.578125 57.375 L 30.808594 48.511719 C 30.542969 48.246094 30.550781 47.8125 30.816406 47.546875 C 31.082031 47.28125 31.515625 47.28125 31.777344 47.546875 L 40.546875 56.402344 C 40.546875 56.402344 41.117188 56.980469 41.117188 56.980469 C 41.542969 57.414062 42.078125 57.503906 42.449219 57.503906 C 43.175781 57.503906 43.925781 57.175781 44.503906 56.589844 C 45.097656 55.984375 45.410156 55.214844 45.410156 54.515625 C 45.410156 53.996094 45.238281 53.515625 44.890625 53.15625 L 36.121094 44.292969 C 35.859375 44.027344 35.859375 43.59375 36.128906 43.328125 C 36.394531 43.0625 36.828125 43.0625 37.085938 43.328125 L 46.429688 52.765625 C 46.855469 53.199219 47.382812 53.285156 47.761719 53.285156 C 48.488281 53.285156 49.226562 52.957031 49.816406 52.371094 C 50.40625 51.765625 50.722656 51 50.722656 50.296875 C 50.722656 49.777344 50.546875 49.300781 50.1875 48.9375 L 41.429688 40.082031 C 41.164062 39.816406 41.164062 39.382812 41.429688 39.117188 C 41.703125 38.851562 42.132812 38.851562 42.398438 39.117188 L 51.726562 48.546875 C 52.535156 49.351562 54.105469 49.171875 55.113281 48.152344 C 55.699219 47.574219 56.023438 46.8125 56.023438 46.085938 C 56.023438 45.699219 55.933594 45.160156 55.492188 44.726562 L 43.691406 32.792969 Z M 43.671875 32.832031 " fill-opacity="1" fill-rule="nonzero"/></g><g clip-path="url(#05b144188f)"><path fill="#1f3c92" d="M 52.011719 13.855469 C 47.121094 14.519531 42.683594 18.367188 40.472656 20.605469 L 27.363281 33.839844 C 27.246094 33.953125 27.222656 34.152344 27.3125 34.292969 C 28.003906 35.367188 29.050781 36.058594 30.25 36.238281 C 31.449219 36.417969 32.667969 36.050781 33.601562 35.246094 C 34.414062 34.53125 35.792969 33.238281 37.171875 31.859375 C 37.554688 31.488281 38.039062 31.265625 38.546875 31.234375 C 40.046875 31.140625 41.542969 31.265625 42.996094 31.394531 C 44.703125 31.546875 46.328125 31.679688 47.96875 31.488281 C 50.519531 31.195312 52.585938 29.769531 54.464844 28.335938 C 54.773438 28.101562 55.199219 28.160156 55.417969 28.46875 C 55.652344 28.769531 55.585938 29.203125 55.285156 29.429688 C 53.238281 30.972656 51.007812 32.519531 48.117188 32.851562 C 47.316406 32.945312 46.503906 32.960938 45.710938 32.941406 L 56.445312 43.78125 C 56.664062 44.015625 56.851562 44.28125 56.992188 44.566406 L 63.347656 38.011719 C 66.019531 35.257812 67.492188 31.648438 67.492188 27.867188 C 67.492188 24.089844 66.074219 20.546875 63.476562 17.867188 C 60.488281 14.789062 56.210938 13.289062 52.019531 13.847656 Z M 52.011719 13.855469 " fill-opacity="1" fill-rule="nonzero"/></g></svg>