<svg xmlns="http://www.w3.org/2000/svg" xmlns:xlink="http://www.w3.org/1999/xlink" width="100" zoomAndPan="magnify" viewBox="0 0 75 74.999997" height="100" preserveAspectRatio="xMidYMid meet" version="1.0"><defs><clipPath id="ae60069556"><path d="M 13.050781 7.5 L 67.800781 7.5 L 67.800781 67.5 L 13.050781 67.5 Z M 13.050781 7.5 " clip-rule="nonzero"/></clipPath></defs><g clip-path="url(#ae60069556)"><path fill="#dca74b" d="M 14.078125 51.273438 C 13.519531 51.273438 13.0625 51.730469 13.0625 52.289062 L 13.0625 66.484375 C 13.0625 67.042969 13.519531 67.5 14.078125 67.5 L 18.921875 67.5 C 19.476562 67.5 19.933594 67.042969 19.933594 66.484375 L 19.933594 52.289062 C 19.933594 51.730469 19.476562 51.273438 18.921875 51.273438 Z M 43.066406 14.988281 C 47.753906 15.414062 51.484375 19.121094 51.9375 23.800781 C 51.945312 23.871094 52.003906 23.925781 52.074219 23.925781 L 53.195312 23.925781 C 53.25 23.925781 53.300781 23.890625 53.320312 23.835938 C 54.152344 21.648438 57.289062 21.648438 58.117188 23.835938 C 58.140625 23.890625 58.1875 23.925781 58.246094 23.925781 L 59.292969 23.925781 C 59.332031 23.925781 59.363281 23.910156 59.390625 23.882812 C 59.417969 23.855469 59.429688 23.820312 59.425781 23.78125 C 58.9375 14.988281 51.882812 7.957031 43.082031 7.5 C 43.046875 7.5 43.011719 7.511719 42.984375 7.539062 C 42.957031 7.566406 42.941406 7.597656 42.941406 7.636719 L 42.941406 9.789062 C 42.941406 9.847656 42.90625 9.894531 42.855469 9.914062 L 41.832031 10.304688 C 41 10.621094 41 11.804688 41.832031 12.121094 L 42.855469 12.507812 C 42.90625 12.53125 42.941406 12.578125 42.941406 12.636719 L 42.945312 14.855469 C 42.945312 14.925781 42.996094 14.980469 43.066406 14.988281 Z M 20.3125 29.945312 C 20.804688 38.742188 27.859375 45.769531 36.65625 46.226562 C 36.695312 46.226562 36.726562 46.214844 36.757812 46.1875 C 36.785156 46.164062 36.796875 46.128906 36.796875 46.089844 L 36.796875 43.9375 C 36.796875 43.878906 36.832031 43.832031 36.886719 43.8125 L 37.910156 43.421875 C 38.738281 43.105469 38.738281 41.921875 37.910156 41.609375 L 36.886719 41.21875 C 36.832031 41.199219 36.796875 41.148438 36.796875 41.09375 L 36.796875 38.875 C 36.796875 38.804688 36.742188 38.746094 36.671875 38.738281 C 31.988281 38.316406 28.253906 34.605469 27.800781 29.925781 C 27.796875 29.855469 27.738281 29.804688 27.667969 29.804688 L 26.546875 29.804688 C 26.488281 29.804688 26.441406 29.835938 26.417969 29.890625 C 25.589844 32.078125 22.453125 32.078125 21.621094 29.890625 C 21.601562 29.835938 21.550781 29.804688 21.496094 29.804688 L 20.449219 29.804688 C 20.410156 29.804688 20.375 29.816406 20.351562 29.84375 C 20.324219 29.875 20.3125 29.90625 20.3125 29.945312 Z M 47.707031 29.863281 C 47.28125 34.546875 43.574219 38.28125 38.890625 38.734375 C 38.824219 38.742188 38.769531 38.796875 38.769531 38.867188 L 38.769531 39.988281 C 38.769531 40.046875 38.804688 40.09375 38.859375 40.117188 C 41.046875 40.945312 41.046875 44.082031 38.859375 44.914062 C 38.804688 44.933594 38.769531 44.984375 38.769531 45.039062 L 38.769531 46.085938 C 38.769531 46.125 38.785156 46.160156 38.8125 46.1875 C 38.839844 46.210938 38.875 46.226562 38.914062 46.222656 C 47.707031 45.730469 54.734375 38.675781 55.195312 29.878906 C 55.195312 29.839844 55.183594 29.808594 55.15625 29.777344 C 55.128906 29.75 55.097656 29.738281 55.058594 29.738281 L 52.90625 29.738281 C 52.847656 29.738281 52.800781 29.703125 52.78125 29.648438 L 52.390625 28.625 C 52.074219 27.796875 50.890625 27.796875 50.574219 28.625 L 50.1875 29.648438 C 50.164062 29.703125 50.117188 29.738281 50.058594 29.738281 L 47.839844 29.738281 C 47.769531 29.742188 47.714844 29.792969 47.707031 29.863281 Z M 27.792969 28.066406 C 27.785156 28.136719 27.726562 28.191406 27.65625 28.191406 L 25.4375 28.191406 C 25.382812 28.191406 25.332031 28.226562 25.3125 28.28125 L 24.921875 29.304688 C 24.605469 30.136719 23.425781 30.136719 23.109375 29.304688 L 22.71875 28.28125 C 22.699219 28.226562 22.648438 28.191406 22.59375 28.191406 L 20.441406 28.191406 C 20.402344 28.191406 20.367188 28.179688 20.339844 28.152344 C 20.316406 28.125 20.300781 28.089844 20.304688 28.050781 C 20.761719 19.253906 27.789062 12.199219 36.585938 11.707031 C 36.625 11.707031 36.65625 11.71875 36.683594 11.746094 C 36.714844 11.769531 36.726562 11.804688 36.726562 11.84375 L 36.726562 12.890625 C 36.726562 12.949219 36.695312 12.996094 36.640625 13.015625 C 34.453125 13.847656 34.453125 16.984375 36.640625 17.816406 C 36.695312 17.835938 36.726562 17.882812 36.726562 17.941406 L 36.726562 19.0625 C 36.726562 19.132812 36.675781 19.191406 36.605469 19.195312 C 31.925781 19.648438 28.214844 23.382812 27.792969 28.066406 Z M 65.871094 54.851562 C 65.890625 54.835938 65.910156 54.824219 65.933594 54.8125 C 65.933594 54.8125 65.933594 54.8125 65.9375 54.8125 C 67.050781 54.191406 67.476562 52.628906 66.828125 51.523438 C 66.113281 50.300781 64.644531 49.917969 63.476562 50.585938 L 50.785156 57.839844 C 50.785156 57.84375 50.78125 57.84375 50.78125 57.84375 C 50.675781 57.910156 50.5625 57.953125 50.441406 57.976562 C 50.4375 57.976562 50.433594 57.976562 50.433594 57.976562 C 49.085938 58.316406 47.65625 58.40625 46.273438 58.40625 C 43.414062 58.40625 40.574219 58.027344 37.742188 57.988281 C 37.214844 57.980469 36.792969 57.546875 36.796875 57.019531 C 36.804688 56.492188 37.238281 56.066406 37.765625 56.074219 C 39.125 56.09375 40.484375 56.1875 41.84375 56.28125 C 41.84375 56.28125 41.84375 56.28125 41.847656 56.28125 C 43.261719 56.339844 44.5625 56.5 45.992188 56.515625 C 47.546875 56.53125 50.652344 56.457031 50.652344 54.328125 C 50.652344 52.984375 49.550781 51.882812 48.210938 51.882812 L 38.179688 51.882812 L 38.179688 51.871094 C 38.085938 51.859375 37.992188 51.828125 37.902344 51.785156 C 35.601562 50.667969 33.035156 49.808594 30.449219 49.90625 C 27.769531 50.003906 25.488281 51.125 23.496094 52.871094 C 23.496094 52.871094 23.492188 52.875 23.488281 52.878906 C 23.308594 53.0625 23.0625 53.164062 22.804688 53.164062 L 21.886719 53.164062 C 21.8125 53.164062 21.75 53.226562 21.75 53.300781 L 21.75 65.027344 C 21.75 65.070312 21.765625 65.105469 21.796875 65.128906 C 21.828125 65.15625 21.863281 65.167969 21.90625 65.164062 C 22.824219 65.039062 26.316406 64.550781 26.527344 64.570312 C 32.117188 65.003906 37.429688 65.671875 43.121094 65.300781 C 46.679688 65.070312 48.132812 64.988281 51.4375 63.101562 L 65.867188 54.851562 C 65.867188 54.851562 65.867188 54.851562 65.871094 54.851562 Z M 65.871094 54.851562 " fill-opacity="1" fill-rule="evenodd"/></g></svg>