<svg xmlns="http://www.w3.org/2000/svg" xmlns:xlink="http://www.w3.org/1999/xlink" width="100" zoomAndPan="magnify" viewBox="0 0 75 74.999997" height="100" preserveAspectRatio="xMidYMid meet" version="1.0"><defs><clipPath id="c66f0ba64d"><path d="M 9.75 10 L 65 10 L 65 64.75 L 9.75 64.75 Z M 9.75 10 " clip-rule="nonzero"/></clipPath><clipPath id="038ac9cf17"><path d="M 41 36 L 69.75 36 L 69.75 64.75 L 41 64.75 Z M 41 36 " clip-rule="nonzero"/></clipPath></defs><g clip-path="url(#c66f0ba64d)"><path fill="#dca74b" d="M 48.691406 52.863281 C 47.53125 52.863281 46.402344 52.644531 45.332031 52.210938 C 44.699219 51.953125 44.101562 51.628906 43.550781 51.238281 C 41.617188 52.128906 39.46875 52.625 37.199219 52.625 C 28.820312 52.625 22.023438 45.828125 22.023438 37.449219 C 22.023438 29.070312 28.820312 22.273438 37.199219 22.273438 C 45.007812 22.273438 51.441406 28.171875 52.28125 35.757812 C 53.296875 36.203125 54.210938 36.828125 55.003906 37.621094 C 56.214844 38.832031 57.046875 40.355469 57.414062 42.023438 C 57.703125 43.347656 57.6875 44.71875 57.371094 46.027344 L 58.117188 46.773438 L 63.460938 46.863281 C 64.097656 44.484375 64.011719 44.808594 64.648438 42.425781 L 59.417969 39.519531 C 59.417969 37.664062 59.417969 37.238281 59.417969 35.378906 L 64.648438 32.472656 C 64.011719 30.09375 64.097656 30.414062 63.460938 28.035156 L 57.476562 28.132812 C 56.546875 26.523438 56.335938 26.15625 55.40625 24.546875 L 58.484375 19.417969 C 56.742188 17.671875 56.976562 17.910156 55.234375 16.167969 L 50.101562 19.246094 C 48.496094 18.316406 48.125 18.101562 46.515625 17.171875 L 46.613281 11.191406 C 44.234375 10.550781 44.558594 10.640625 42.175781 10 L 39.269531 15.230469 C 37.414062 15.230469 36.988281 15.230469 35.128906 15.230469 L 32.222656 10 C 29.84375 10.640625 30.164062 10.550781 27.785156 11.191406 L 27.882812 17.171875 C 26.273438 18.101562 25.90625 18.316406 24.296875 19.246094 L 19.164062 16.167969 C 17.421875 17.910156 17.660156 17.671875 15.917969 19.417969 L 18.992188 24.546875 C 18.066406 26.15625 17.851562 26.523438 16.921875 28.136719 L 10.941406 28.035156 C 10.300781 30.417969 10.386719 30.09375 9.75 32.472656 L 14.980469 35.378906 C 14.980469 37.238281 14.980469 37.664062 14.980469 39.523438 L 9.75 42.425781 C 10.386719 44.808594 10.300781 44.484375 10.941406 46.867188 L 16.921875 46.765625 C 17.851562 48.375 18.066406 48.742188 18.992188 50.355469 L 15.917969 55.484375 C 17.660156 57.226562 17.421875 56.992188 19.164062 58.734375 L 24.296875 55.65625 C 25.90625 56.585938 26.273438 56.800781 27.882812 57.726562 L 27.785156 63.710938 C 30.164062 64.351562 29.84375 64.261719 32.222656 64.902344 L 35.128906 59.671875 C 36.988281 59.671875 37.414062 59.671875 39.269531 59.671875 L 42.175781 64.902344 C 44.558594 64.261719 44.234375 64.351562 46.613281 63.710938 L 46.515625 57.726562 C 48.125 56.800781 48.492188 56.585938 50.101562 55.65625 L 55.234375 58.734375 C 55.582031 58.386719 55.847656 58.121094 56.070312 57.898438 L 50.785156 52.617188 C 50.101562 52.78125 49.398438 52.863281 48.691406 52.863281 Z M 48.691406 52.863281 " fill-opacity="1" fill-rule="nonzero"/></g><g clip-path="url(#038ac9cf17)"><path fill="#dca74b" d="M 68.476562 59.109375 L 55.800781 46.433594 C 56.726562 43.785156 56.132812 40.726562 54.019531 38.609375 C 51.769531 36.363281 48.460938 35.832031 45.710938 37.015625 L 50.527344 41.835938 L 46.59375 45.773438 L 41.773438 40.953125 C 40.585938 43.703125 41.117188 47.015625 43.363281 49.261719 C 45.480469 51.378906 48.539062 51.972656 51.1875 51.046875 L 63.863281 63.722656 C 65.136719 64.996094 67.203125 64.996094 68.476562 63.722656 C 69.75 62.449219 69.75 60.382812 68.476562 59.109375 Z M 68.476562 59.109375 " fill-opacity="1" fill-rule="nonzero"/></g><path fill="#dca74b" d="M 27.75 43.566406 L 27.75 34.410156 L 29.835938 34.410156 L 29.835938 31.78125 L 27.75 31.78125 L 27.75 29.238281 L 26.214844 29.238281 L 26.214844 31.78125 L 24.132812 31.78125 L 24.132812 34.410156 L 26.214844 34.410156 L 26.214844 43.566406 Z M 27.75 43.566406 " fill-opacity="1" fill-rule="nonzero"/><path fill="#dca74b" d="M 32.984375 43.566406 L 32.984375 41.40625 L 35.066406 41.40625 L 35.066406 38.777344 L 32.984375 38.777344 L 32.984375 29.238281 L 31.449219 29.238281 L 31.449219 38.777344 L 29.367188 38.777344 L 29.367188 41.40625 L 31.449219 41.40625 L 31.449219 43.566406 Z M 32.984375 43.566406 " fill-opacity="1" fill-rule="nonzero"/><path fill="#dca74b" d="M 38.238281 43.566406 L 38.238281 36.164062 L 40.320312 36.164062 L 40.320312 33.535156 L 38.238281 33.535156 L 38.238281 29.238281 L 36.703125 29.238281 L 36.703125 33.535156 L 34.621094 33.535156 L 34.621094 36.164062 L 36.703125 36.164062 L 36.703125 43.566406 Z M 38.238281 43.566406 " fill-opacity="1" fill-rule="nonzero"/></svg>