<svg xmlns="http://www.w3.org/2000/svg" xmlns:xlink="http://www.w3.org/1999/xlink" width="100" zoomAndPan="magnify" viewBox="0 0 75 74.999997" height="100" preserveAspectRatio="xMidYMid meet" version="1.0"><defs><clipPath id="df426f5ea9"><path d="M 14.375 7.5 L 60.875 7.5 L 60.875 67.5 L 14.375 67.5 Z M 14.375 7.5 " clip-rule="nonzero"/></clipPath></defs><g clip-path="url(#df426f5ea9)"><path fill="#dca74b" d="M 42.691406 40.746094 C 41.5625 41.269531 40.710938 42.289062 40.414062 43.578125 C 40.410156 43.582031 40.03125 45.195312 40.03125 45.195312 C 40.03125 45.195312 40.03125 45.199219 40.03125 45.199219 C 40.019531 45.246094 40 45.285156 39.960938 45.320312 C 39.960938 45.320312 39.960938 45.320312 39.957031 45.320312 L 38.746094 46.460938 C 37.375 47.746094 37.03125 49.710938 37.878906 51.386719 C 37.882812 51.386719 38.628906 52.859375 38.628906 52.859375 C 38.648438 52.90625 38.660156 52.953125 38.652344 53.003906 C 38.652344 53.007812 38.652344 53.007812 38.652344 53.011719 L 38.457031 54.664062 L 38.457031 54.667969 C 38.375 55.328125 38.453125 55.976562 38.660156 56.566406 C 30.566406 56.566406 22.171875 56.566406 19.746094 56.566406 C 19.570312 56.566406 19.402344 56.488281 19.285156 56.355469 C 19.167969 56.222656 19.117188 56.046875 19.140625 55.871094 C 20.449219 46.902344 28.167969 40.011719 37.5 40.011719 C 39.300781 40.011719 41.046875 40.265625 42.691406 40.746094 Z M 37.5 38.785156 C 32.332031 38.785156 28.121094 34.570312 28.121094 29.402344 C 28.121094 24.238281 32.332031 20.023438 37.5 20.023438 C 42.671875 20.023438 46.882812 24.238281 46.882812 29.402344 C 46.882812 34.570312 42.671875 38.785156 37.5 38.785156 Z M 56.84375 60.191406 L 59.09375 65.023438 C 59.128906 65.09375 59.121094 65.167969 59.070312 65.226562 C 59.027344 65.285156 58.957031 65.316406 58.882812 65.300781 L 55.902344 64.78125 L 54.375 67.398438 C 54.339844 67.460938 54.273438 67.5 54.199219 67.496094 C 54.125 67.492188 54.0625 67.449219 54.027344 67.382812 L 51.964844 62.949219 C 53.625 63.269531 55.285156 62.578125 56.230469 61.128906 Z M 47.773438 62.949219 L 45.707031 67.382812 C 45.675781 67.449219 45.613281 67.492188 45.539062 67.496094 C 45.464844 67.5 45.398438 67.460938 45.359375 67.398438 L 43.839844 64.78125 L 40.855469 65.300781 C 40.777344 65.316406 40.710938 65.285156 40.664062 65.226562 C 40.617188 65.167969 40.609375 65.09375 40.640625 65.023438 L 42.890625 60.191406 C 43.15625 60.597656 43.507812 61.132812 43.507812 61.132812 C 44.453125 62.578125 46.109375 63.269531 47.773438 62.949219 Z M 51.195312 40.792969 L 52.527344 41.789062 C 52.890625 42.0625 53.273438 42.203125 53.726562 42.226562 L 55.390625 42.320312 C 56.382812 42.375 57.191406 43.054688 57.417969 44.023438 L 57.796875 45.644531 C 57.902344 46.085938 58.105469 46.4375 58.4375 46.75 L 59.652344 47.890625 C 60.378906 48.570312 60.558594 49.609375 60.109375 50.5 L 59.359375 51.984375 C 59.15625 52.390625 59.082031 52.789062 59.140625 53.242188 L 59.335938 54.894531 C 59.453125 55.882812 58.925781 56.800781 58.007812 57.191406 L 56.480469 57.84375 C 56.0625 58.023438 55.75 58.289062 55.5 58.667969 L 54.589844 60.058594 C 54.046875 60.894531 53.054688 61.253906 52.101562 60.964844 L 50.507812 60.484375 C 50.074219 60.351562 49.664062 60.351562 49.230469 60.484375 L 47.636719 60.964844 C 46.683594 61.253906 45.691406 60.894531 45.144531 60.058594 L 44.238281 58.667969 C 43.988281 58.289062 43.675781 58.023438 43.253906 57.84375 L 41.726562 57.191406 C 40.8125 56.800781 40.285156 55.882812 40.402344 54.894531 L 40.597656 53.242188 C 40.652344 52.789062 40.582031 52.390625 40.378906 51.984375 L 39.628906 50.5 C 39.175781 49.609375 39.359375 48.570312 40.085938 47.890625 L 41.300781 46.75 C 41.632812 46.4375 41.835938 46.085938 41.9375 45.644531 L 42.320312 44.023438 C 42.546875 43.054688 43.355469 42.375 44.347656 42.320312 L 46.007812 42.226562 C 46.464844 42.203125 46.847656 42.0625 47.210938 41.789062 L 48.542969 40.792969 C 49.339844 40.195312 50.394531 40.195312 51.195312 40.792969 Z M 49.871094 56.785156 C 53.214844 56.785156 55.945312 54.050781 55.945312 50.703125 C 55.945312 47.355469 53.214844 44.625 49.871094 44.625 C 46.523438 44.625 43.789062 47.355469 43.789062 50.703125 C 43.789062 54.050781 46.523438 56.785156 49.871094 56.785156 Z M 37.050781 7.832031 C 37.113281 7.636719 37.292969 7.503906 37.5 7.503906 C 37.703125 7.503906 37.886719 7.636719 37.949219 7.832031 L 38.8125 10.484375 C 38.875 10.679688 39.058594 10.8125 39.261719 10.8125 L 42.050781 10.8125 C 42.257812 10.8125 42.4375 10.945312 42.503906 11.140625 C 42.566406 11.335938 42.496094 11.546875 42.332031 11.667969 L 40.074219 13.308594 C 39.90625 13.429688 39.839844 13.644531 39.902344 13.839844 L 40.765625 16.492188 C 40.828125 16.6875 40.757812 16.898438 40.589844 17.019531 C 40.425781 17.140625 40.199219 17.140625 40.035156 17.019531 L 37.777344 15.382812 C 37.613281 15.261719 37.386719 15.261719 37.222656 15.382812 L 34.964844 17.019531 C 34.796875 17.140625 34.574219 17.140625 34.40625 17.019531 C 34.242188 16.898438 34.171875 16.6875 34.234375 16.492188 L 35.097656 13.839844 C 35.160156 13.644531 35.089844 13.429688 34.925781 13.308594 L 32.667969 11.667969 C 32.503906 11.546875 32.433594 11.335938 32.496094 11.140625 C 32.558594 10.945312 32.742188 10.8125 32.949219 10.8125 L 35.738281 10.8125 C 35.941406 10.8125 36.125 10.679688 36.1875 10.484375 Z M 21.0625 14.828125 C 20.96875 14.644531 21.003906 14.425781 21.148438 14.277344 C 21.292969 14.132812 21.515625 14.097656 21.699219 14.191406 L 24.183594 15.457031 C 24.367188 15.550781 24.589844 15.515625 24.734375 15.371094 L 26.707031 13.398438 C 26.851562 13.253906 27.074219 13.21875 27.257812 13.3125 C 27.441406 13.40625 27.542969 13.605469 27.511719 13.808594 L 27.074219 16.5625 C 27.042969 16.765625 27.144531 16.964844 27.328125 17.058594 L 29.8125 18.324219 C 29.996094 18.417969 30.097656 18.617188 30.066406 18.820312 C 30.03125 19.023438 29.875 19.183594 29.671875 19.214844 L 26.917969 19.652344 C 26.714844 19.683594 26.554688 19.84375 26.523438 20.046875 L 26.085938 22.800781 C 26.054688 23.003906 25.894531 23.160156 25.691406 23.195312 C 25.488281 23.226562 25.289062 23.125 25.195312 22.941406 L 23.929688 20.457031 C 23.835938 20.273438 23.636719 20.171875 23.433594 20.203125 L 20.679688 20.640625 C 20.476562 20.671875 20.277344 20.570312 20.183594 20.386719 C 20.089844 20.203125 20.125 19.980469 20.269531 19.835938 L 22.242188 17.863281 C 22.386719 17.71875 22.421875 17.496094 22.328125 17.3125 Z M 14.707031 31.082031 C 14.511719 31.015625 14.378906 30.835938 14.378906 30.628906 C 14.378906 30.425781 14.511719 30.242188 14.707031 30.179688 L 17.359375 29.316406 C 17.554688 29.253906 17.6875 29.074219 17.6875 28.867188 L 17.6875 26.078125 C 17.6875 25.871094 17.820312 25.691406 18.011719 25.628906 C 18.207031 25.5625 18.421875 25.632812 18.542969 25.800781 L 20.183594 28.054688 C 20.304688 28.222656 20.515625 28.292969 20.710938 28.226562 L 23.363281 27.367188 C 23.558594 27.304688 23.773438 27.371094 23.894531 27.539062 C 24.015625 27.703125 24.015625 27.929688 23.894531 28.09375 L 22.253906 30.351562 C 22.132812 30.519531 22.132812 30.742188 22.253906 30.910156 L 23.894531 33.164062 C 24.015625 33.332031 24.015625 33.554688 23.894531 33.722656 C 23.773438 33.886719 23.558594 33.957031 23.363281 33.894531 L 20.710938 33.03125 C 20.515625 32.96875 20.304688 33.039062 20.183594 33.203125 L 18.542969 35.460938 C 18.421875 35.628906 18.207031 35.695312 18.011719 35.632812 C 17.820312 35.570312 17.6875 35.386719 17.6875 35.183594 L 17.6875 32.394531 C 17.6875 32.1875 17.554688 32.007812 17.359375 31.941406 Z M 53.300781 14.1875 C 53.484375 14.09375 53.707031 14.128906 53.851562 14.277344 C 53.996094 14.421875 54.03125 14.640625 53.9375 14.824219 L 52.671875 17.3125 C 52.578125 17.492188 52.613281 17.714844 52.757812 17.859375 L 54.730469 19.832031 C 54.875 19.976562 54.910156 20.199219 54.820312 20.382812 C 54.726562 20.566406 54.523438 20.667969 54.324219 20.636719 L 51.566406 20.199219 C 51.363281 20.167969 51.164062 20.269531 51.070312 20.453125 L 49.804688 22.9375 C 49.710938 23.121094 49.511719 23.222656 49.308594 23.191406 C 49.105469 23.160156 48.945312 23 48.914062 22.796875 L 48.480469 20.042969 C 48.445312 19.839844 48.289062 19.679688 48.085938 19.648438 L 45.328125 19.210938 C 45.128906 19.179688 44.96875 19.019531 44.9375 18.816406 C 44.902344 18.617188 45.007812 18.414062 45.1875 18.320312 L 47.675781 17.054688 C 47.855469 16.960938 47.960938 16.761719 47.925781 16.558594 L 47.492188 13.804688 C 47.457031 13.601562 47.5625 13.402344 47.742188 13.308594 C 47.925781 13.214844 48.148438 13.25 48.292969 13.394531 L 50.265625 15.367188 C 50.410156 15.511719 50.632812 15.546875 50.816406 15.453125 Z M 60.296875 30.175781 C 60.492188 30.238281 60.625 30.421875 60.625 30.625 C 60.625 30.832031 60.492188 31.011719 60.296875 31.074219 L 57.644531 31.9375 C 57.449219 32 57.316406 32.183594 57.316406 32.386719 L 57.316406 35.179688 C 57.316406 35.382812 57.1875 35.566406 56.992188 35.628906 C 56.796875 35.691406 56.582031 35.621094 56.460938 35.457031 L 54.820312 33.199219 C 54.699219 33.035156 54.488281 32.964844 54.292969 33.027344 L 51.640625 33.890625 C 51.445312 33.953125 51.230469 33.882812 51.109375 33.71875 C 50.988281 33.550781 50.988281 33.328125 51.109375 33.160156 L 52.75 30.902344 C 52.871094 30.738281 52.871094 30.511719 52.75 30.347656 L 51.109375 28.089844 C 50.988281 27.925781 50.988281 27.699219 51.109375 27.535156 C 51.230469 27.367188 51.445312 27.296875 51.640625 27.363281 L 54.292969 28.222656 C 54.488281 28.285156 54.699219 28.21875 54.820312 28.050781 L 56.460938 25.792969 C 56.582031 25.628906 56.796875 25.558594 56.992188 25.621094 C 57.1875 25.6875 57.316406 25.867188 57.316406 26.074219 L 57.316406 28.863281 C 57.316406 29.066406 57.449219 29.25 57.644531 29.3125 Z M 60.296875 30.175781 " fill-opacity="1" fill-rule="evenodd"/></g></svg>