<svg xmlns="http://www.w3.org/2000/svg" xmlns:xlink="http://www.w3.org/1999/xlink" width="100" zoomAndPan="magnify" viewBox="0 0 75 74.999997" height="100" preserveAspectRatio="xMidYMid meet" version="1.0"><defs><clipPath id="4c9ecd4192"><path d="M 7.5 12.75 L 67.5 12.75 L 67.5 62 L 7.5 62 Z M 7.5 12.75 " clip-rule="nonzero"/></clipPath></defs><g clip-path="url(#4c9ecd4192)"><path fill="#dca74b" d="M 25.1875 20.160156 C 22.535156 17.507812 18.238281 17.507812 15.585938 20.160156 C 12.9375 22.8125 12.9375 27.109375 15.585938 29.761719 C 18.238281 32.410156 22.535156 32.410156 25.1875 29.761719 C 27.84375 27.109375 27.84375 22.8125 25.1875 20.160156 Z M 25.433594 30.992188 C 22.507812 33.445312 18.238281 33.433594 15.320312 30.972656 C 12.542969 32.265625 9.972656 36.945312 8.117188 40.800781 C 7.535156 41.996094 8.574219 43.238281 9.789062 42.871094 C 10.144531 42.761719 10.457031 42.523438 10.644531 42.175781 L 13.511719 36.796875 C 13.777344 36.238281 14.546875 36.453125 14.546875 37.007812 L 14.546875 58.355469 C 14.546875 60.914062 17.859375 62.25 19.804688 60.394531 C 20.355469 59.871094 20.699219 59.148438 20.699219 58.355469 L 20.703125 58.355469 L 20.703125 48.167969 C 20.703125 47.460938 21.78125 47.460938 21.78125 48.167969 L 21.78125 58.535156 C 21.828125 59.257812 22.160156 59.910156 22.667969 60.394531 C 24.613281 62.246094 27.925781 60.914062 27.925781 58.355469 L 27.925781 35.617188 C 27.925781 35.488281 27.972656 35.355469 28.0625 35.253906 L 36.785156 25.59375 C 37.316406 25.007812 37.269531 24.089844 36.683594 23.566406 L 36.683594 23.5625 C 36.039062 23.035156 35.160156 23.050781 34.664062 23.648438 C 31.957031 26.921875 28.792969 29.984375 25.433594 30.992188 Z M 60.0625 30.972656 C 58.691406 32.128906 56.921875 32.824219 54.988281 32.824219 C 53.070312 32.824219 51.3125 32.136719 49.945312 30.992188 C 48.726562 30.625 47.386719 29.953125 45.878906 28.804688 C 44.347656 27.640625 42.644531 25.980469 40.714844 23.648438 C 40.21875 23.046875 39.34375 23.035156 38.695312 23.558594 L 38.699219 23.5625 C 38.113281 24.089844 38.066406 25.003906 38.597656 25.59375 L 47.316406 35.253906 C 47.40625 35.355469 47.453125 35.484375 47.453125 35.613281 L 47.453125 58.351562 C 47.453125 60.914062 50.765625 62.242188 52.710938 60.394531 C 53.222656 59.910156 53.550781 59.253906 53.601562 58.535156 L 53.601562 48.167969 C 53.601562 47.457031 54.675781 47.457031 54.675781 48.167969 L 54.675781 58.351562 L 54.683594 58.351562 C 54.683594 60.914062 57.992188 62.246094 59.9375 60.394531 C 60.492188 59.867188 60.835938 59.148438 60.835938 58.351562 L 60.835938 37.007812 C 60.835938 36.453125 61.597656 36.238281 61.867188 36.796875 L 64.738281 42.175781 C 65.324219 43.277344 66.988281 43.15625 67.359375 41.9375 C 67.46875 41.578125 67.445312 41.167969 67.265625 40.796875 C 65.40625 36.945312 62.84375 32.265625 60.0625 30.972656 Z M 54.988281 18.171875 C 51.242188 18.171875 48.199219 21.210938 48.199219 24.960938 C 48.199219 28.707031 51.238281 31.75 54.988281 31.75 C 58.742188 31.75 61.777344 28.710938 61.777344 24.960938 C 61.777344 21.210938 58.742188 18.171875 54.988281 18.171875 Z M 34.238281 17.601562 C 34.632812 18.191406 33.742188 18.785156 33.351562 18.195312 L 30.875 14.511719 C 30.480469 13.929688 31.375 13.328125 31.765625 13.917969 Z M 38.226562 17.835938 C 38.226562 18.542969 37.152344 18.542969 37.152344 17.835938 L 37.152344 13.453125 C 37.152344 12.742188 38.226562 12.742188 38.226562 13.453125 Z M 43.613281 13.917969 C 44.003906 13.328125 44.898438 13.929688 44.503906 14.511719 L 42.03125 18.195312 C 41.640625 18.785156 40.746094 18.1875 41.140625 17.601562 Z M 43.613281 13.917969 " fill-opacity="1" fill-rule="nonzero"/></g></svg>