<svg xmlns="http://www.w3.org/2000/svg" xmlns:xlink="http://www.w3.org/1999/xlink" width="100" zoomAndPan="magnify" viewBox="0 0 75 74.999997" height="100" preserveAspectRatio="xMidYMid meet" version="1.0"><defs><clipPath id="b2aa6d1874"><path d="M 9.734375 15 L 66 15 L 66 46 L 9.734375 46 Z M 9.734375 15 " clip-rule="nonzero"/></clipPath><clipPath id="79bef9a187"><path d="M 28 44 L 47 44 L 47 63.976562 L 28 63.976562 Z M 28 44 " clip-rule="nonzero"/></clipPath></defs><path fill="#dca74b" d="M 49.265625 36.097656 C 55.988281 35.882812 55.984375 26.140625 49.265625 25.929688 C 42.546875 26.140625 42.550781 35.886719 49.265625 36.097656 Z M 49.265625 36.097656 " fill-opacity="1" fill-rule="nonzero"/><path fill="#dca74b" d="M 42.4375 43.433594 C 46.710938 45.285156 49.542969 49.769531 49.265625 54.660156 C 49.265625 54.660156 57.425781 47.667969 57.425781 47.667969 L 57.425781 43.980469 C 56.007812 40.730469 52.832031 38.640625 49.265625 38.640625 C 47.796875 38.640625 46.367188 39.019531 45.082031 39.707031 C 44.601562 41.203125 43.664062 42.496094 42.4375 43.433594 Z M 42.4375 43.433594 " fill-opacity="1" fill-rule="nonzero"/><g clip-path="url(#b2aa6d1874)"><path fill="#dca74b" d="M 51.039062 15.757812 C 47.097656 15.757812 43.394531 17.292969 40.605469 20.078125 L 37.828125 22.859375 L 35.046875 20.078125 C 25.9375 10.8125 9.773438 17.507812 9.859375 30.515625 C 9.859375 36.039062 11.960938 41.308594 15.683594 45.304688 C 15.730469 44.890625 15.589844 43.609375 15.777344 43.25 C 16.925781 40.414062 19.105469 38.253906 21.78125 37.082031 C 19.949219 35.683594 18.757812 33.488281 18.757812 31.011719 C 19.0625 21.070312 33.410156 20.871094 34 30.78125 C 36.21875 29.414062 39.4375 29.410156 41.652344 30.78125 C 42.238281 20.871094 56.597656 21.074219 56.894531 31.011719 C 56.894531 33.488281 55.703125 35.683594 53.871094 37.078125 C 56.601562 38.3125 59.136719 40.660156 59.96875 43.726562 C 59.96875 43.726562 59.96875 45.304688 59.96875 45.304688 C 69.792969 35.015625 67.230469 16.46875 51.039062 15.757812 Z M 51.039062 15.757812 " fill-opacity="1" fill-rule="nonzero"/></g><path fill="#dca74b" d="M 31.46875 31.011719 C 31.257812 24.292969 21.511719 24.296875 21.300781 31.011719 C 21.515625 37.734375 31.257812 37.730469 31.46875 31.011719 Z M 31.46875 31.011719 " fill-opacity="1" fill-rule="nonzero"/><g clip-path="url(#79bef9a187)"><path fill="#dca74b" d="M 37.828125 44.996094 C 32.917969 44.996094 28.929688 48.988281 28.929688 53.894531 L 28.929688 56.839844 L 37 63.757812 C 37.476562 64.164062 38.175781 64.164062 38.652344 63.757812 L 46.726562 56.839844 L 46.726562 53.894531 C 46.726562 48.988281 42.730469 44.996094 37.828125 44.996094 Z M 37.828125 44.996094 " fill-opacity="1" fill-rule="nonzero"/></g><path fill="#dca74b" d="M 18.226562 43.980469 L 18.226562 47.667969 L 26.386719 54.660156 C 26.109375 49.769531 28.941406 45.285156 33.21875 43.433594 C 31.992188 42.496094 31.050781 41.203125 30.566406 39.703125 C 26.15625 37.214844 20.148438 39.296875 18.226562 43.980469 Z M 18.226562 43.980469 " fill-opacity="1" fill-rule="nonzero"/><path fill="#dca74b" d="M 37.828125 32.285156 C 31.105469 32.5 31.109375 42.242188 37.828125 42.453125 C 44.546875 42.242188 44.542969 32.496094 37.828125 32.285156 Z M 37.828125 32.285156 " fill-opacity="1" fill-rule="nonzero"/></svg>