<svg xmlns="http://www.w3.org/2000/svg" xmlns:xlink="http://www.w3.org/1999/xlink" width="100" zoomAndPan="magnify" viewBox="0 0 75 74.999997" height="100" preserveAspectRatio="xMidYMid meet" version="1.0"><defs><clipPath id="dc08e30d18"><path d="M 10.882812 7.5 L 67.132812 7.5 L 67.132812 64.5 L 10.882812 64.5 Z M 10.882812 7.5 " clip-rule="nonzero"/></clipPath></defs><g clip-path="url(#dc08e30d18)"><path fill="#dca74b" d="M 41.226562 54.351562 L 30.078125 54.351562 L 30.078125 56.828125 L 41.203125 56.828125 L 41.203125 58.28125 L 30.078125 58.28125 L 30.078125 60.753906 L 41.226562 60.753906 Z M 53.234375 22.597656 C 55.085938 25.574219 56.203125 29.050781 56.328125 32.773438 L 55.003906 32.773438 C 54.605469 32.773438 54.28125 33.097656 54.28125 33.496094 C 54.28125 33.898438 54.605469 34.222656 55.003906 34.222656 L 56.332031 34.222656 C 56.074219 41.730469 51.816406 48.464844 45.089844 51.917969 C 44.730469 52.097656 44.589844 52.535156 44.773438 52.894531 C 44.957031 53.25 45.394531 53.390625 45.75 53.207031 C 49.316406 51.375 52.328125 48.605469 54.453125 45.199219 C 56.511719 41.898438 57.65625 38.117188 57.78125 34.222656 L 59.636719 34.222656 C 60.039062 34.222656 60.363281 33.898438 60.363281 33.496094 C 60.363281 33.097656 60.039062 32.773438 59.636719 32.773438 L 57.78125 32.773438 C 57.648438 28.714844 56.421875 24.929688 54.382812 21.703125 Z M 38.136719 28.8125 C 37.398438 28.417969 36.550781 28.195312 35.652344 28.195312 C 32.730469 28.195312 30.351562 30.574219 30.351562 33.496094 C 30.351562 36.417969 32.730469 38.796875 35.652344 38.796875 C 38.578125 38.796875 40.957031 36.417969 40.957031 33.496094 C 40.957031 33.066406 40.902344 32.648438 40.808594 32.246094 L 36.988281 35.210938 C 36.605469 35.511719 36.136719 35.671875 35.65625 35.671875 C 34.984375 35.671875 34.351562 35.359375 33.9375 34.828125 C 33.199219 33.882812 33.371094 32.515625 34.320312 31.777344 C 35.59375 30.792969 36.867188 29.804688 38.136719 28.8125 Z M 46.289062 22.484375 C 43.980469 24.277344 41.671875 26.070312 39.367188 27.863281 C 38.300781 27.15625 37.023438 26.746094 35.65625 26.746094 C 31.933594 26.746094 28.902344 29.773438 28.902344 33.496094 C 28.902344 37.21875 31.933594 40.25 35.65625 40.25 C 39.378906 40.25 42.40625 37.21875 42.40625 33.496094 C 42.40625 32.726562 42.277344 31.984375 42.035156 31.292969 L 48.929688 25.9375 C 50.15625 28.128906 50.859375 30.65625 50.859375 33.339844 C 50.859375 33.34375 50.859375 33.351562 50.859375 33.355469 C 51.003906 39.578125 48.199219 42.847656 45.492188 46.011719 C 43.660156 48.144531 41.925781 50.171875 41.347656 52.902344 L 29.960938 52.902344 C 29.382812 50.171875 27.648438 48.144531 25.820312 46.011719 C 23.109375 42.847656 20.304688 39.578125 20.449219 33.355469 C 20.453125 33.351562 20.453125 33.34375 20.453125 33.339844 C 20.453125 24.957031 27.269531 18.136719 35.65625 18.136719 C 39.789062 18.136719 43.542969 19.796875 46.289062 22.484375 Z M 51.710938 18.273438 C 51.328125 18.570312 50.945312 18.867188 50.5625 19.164062 C 46.953125 15.410156 41.941406 13.011719 36.378906 12.820312 L 36.378906 14.144531 C 36.378906 14.546875 36.054688 14.871094 35.65625 14.871094 C 35.253906 14.871094 34.929688 14.546875 34.929688 14.144531 L 34.929688 12.820312 C 24.09375 13.195312 15.351562 21.9375 14.976562 32.773438 L 16.300781 32.773438 C 16.703125 32.773438 17.027344 33.097656 17.027344 33.496094 C 17.027344 33.898438 16.703125 34.222656 16.300781 34.222656 L 14.976562 34.222656 C 15.234375 41.730469 19.492188 48.464844 26.21875 51.917969 C 26.574219 52.097656 26.714844 52.535156 26.535156 52.894531 C 26.40625 53.144531 26.148438 53.285156 25.886719 53.285156 C 25.777344 53.285156 25.664062 53.261719 25.558594 53.207031 C 21.988281 51.375 18.980469 48.605469 16.855469 45.195312 C 14.796875 41.898438 13.652344 38.117188 13.527344 34.222656 L 11.671875 34.222656 C 11.269531 34.222656 10.945312 33.894531 10.945312 33.496094 C 10.945312 33.097656 11.269531 32.769531 11.671875 32.769531 L 13.527344 32.769531 C 13.902344 21.136719 23.296875 11.746094 34.929688 11.371094 L 34.929688 9.511719 C 34.929688 9.113281 35.253906 8.789062 35.652344 8.789062 C 36.054688 8.789062 36.378906 9.113281 36.378906 9.511719 L 36.378906 11.371094 C 42.40625 11.566406 47.832031 14.179688 51.710938 18.273438 Z M 56.894531 17.917969 L 36.097656 34.070312 C 35.964844 34.171875 35.808594 34.222656 35.652344 34.222656 C 35.4375 34.222656 35.222656 34.125 35.082031 33.941406 C 34.835938 33.625 34.894531 33.171875 35.210938 32.925781 C 42.140625 27.539062 49.074219 22.15625 56.007812 16.773438 L 57.195312 11.433594 C 57.234375 11.269531 57.328125 11.121094 57.460938 11.019531 L 61.734375 7.699219 C 61.976562 7.511719 62.308594 7.496094 62.566406 7.660156 C 62.824219 7.820312 62.953125 8.128906 62.886719 8.429688 L 61.828125 13.167969 L 66.679688 13.316406 C 66.988281 13.324219 67.253906 13.523438 67.347656 13.816406 C 67.441406 14.105469 67.34375 14.425781 67.105469 14.613281 L 62.828125 17.933594 C 62.703125 18.03125 62.546875 18.085938 62.386719 18.085938 C 62.378906 18.085938 62.371094 18.085938 62.363281 18.085938 Z M 40.195312 62.203125 L 31.109375 62.203125 L 32.492188 63.582031 C 32.992188 64.078125 33.554688 64.320312 34.214844 64.320312 L 37.09375 64.320312 C 37.753906 64.320312 38.316406 64.078125 38.816406 63.582031 Z M 40.195312 62.203125 " fill-opacity="1" fill-rule="evenodd"/></g></svg>