<svg xmlns="http://www.w3.org/2000/svg" xmlns:xlink="http://www.w3.org/1999/xlink" width="100" zoomAndPan="magnify" viewBox="0 0 75 74.999997" height="100" preserveAspectRatio="xMidYMid meet" version="1.0"><defs><clipPath id="ac17df7027"><path d="M 11.324219 7.5 L 63.824219 7.5 L 63.824219 67.5 L 11.324219 67.5 Z M 11.324219 7.5 " clip-rule="nonzero"/></clipPath></defs><g clip-path="url(#ac17df7027)"><path fill="#dca74b" d="M 60.890625 14.261719 C 55.648438 13.472656 50.445312 11.253906 45.417969 7.664062 C 45.273438 7.5625 45.101562 7.507812 44.925781 7.507812 L 30.085938 7.507812 C 29.910156 7.507812 29.734375 7.5625 29.59375 7.664062 C 24.566406 11.253906 19.359375 13.472656 14.121094 14.261719 C 12.503906 14.507812 11.332031 15.871094 11.332031 17.503906 L 11.332031 37.46875 C 11.332031 40.988281 12.175781 44.535156 13.847656 48.007812 C 15.347656 51.132812 17.476562 54.125 20.171875 56.910156 C 25.046875 61.953125 31.445312 65.898438 37.285156 67.464844 C 37.355469 67.484375 37.429688 67.492188 37.503906 67.492188 C 37.578125 67.492188 37.652344 67.484375 37.726562 67.464844 C 43.566406 65.898438 49.960938 61.953125 54.839844 56.910156 C 57.535156 54.125 59.660156 51.132812 61.160156 48.007812 C 62.832031 44.535156 63.679688 40.988281 63.679688 37.46875 L 63.679688 17.503906 C 63.679688 15.871094 62.507812 14.507812 60.890625 14.261719 Z M 61.980469 37.46875 C 61.980469 51.363281 47.589844 62.949219 37.503906 65.761719 C 27.421875 62.949219 13.03125 51.363281 13.03125 37.46875 L 13.03125 17.503906 C 13.03125 16.71875 13.59375 16.0625 14.375 15.945312 C 19.804688 15.125 25.179688 12.859375 30.355469 9.207031 L 44.652344 9.207031 C 49.832031 12.859375 55.207031 15.125 60.636719 15.945312 C 61.414062 16.0625 61.980469 16.71875 61.980469 17.503906 Z M 59.578125 17.492188 C 54.398438 16.578125 49.269531 14.410156 44.335938 11.054688 C 44.195312 10.957031 44.027344 10.90625 43.855469 10.90625 L 31.152344 10.90625 C 30.984375 10.90625 30.816406 10.957031 30.675781 11.054688 C 25.742188 14.410156 20.613281 16.578125 15.433594 17.492188 C 15.027344 17.5625 14.730469 17.917969 14.730469 18.328125 L 14.730469 37.46875 C 14.730469 40.5625 15.507812 43.699219 17.039062 46.792969 C 18.375 49.496094 20.25 52.105469 22.613281 54.546875 C 22.902344 54.847656 23.203125 55.148438 23.507812 55.441406 C 23.808594 55.730469 24.269531 55.757812 24.605469 55.511719 C 24.9375 55.265625 25.046875 54.816406 24.859375 54.445312 C 23.851562 52.460938 23.339844 50.320312 23.339844 48.089844 L 23.339844 37.019531 L 51.667969 37.019531 L 51.667969 48.089844 C 51.667969 50.320312 51.15625 52.460938 50.152344 54.445312 C 49.964844 54.816406 50.070312 55.265625 50.40625 55.511719 C 50.554688 55.625 50.734375 55.679688 50.910156 55.679688 C 51.125 55.679688 51.335938 55.597656 51.5 55.441406 C 51.804688 55.148438 52.105469 54.847656 52.394531 54.546875 C 54.757812 52.105469 56.632812 49.496094 57.972656 46.796875 C 59.503906 43.699219 60.28125 40.5625 60.28125 37.46875 L 60.28125 18.328125 C 60.28125 17.917969 59.984375 17.5625 59.578125 17.492188 Z M 48.371094 35.320312 L 44.398438 35.320312 L 44.398438 29.550781 C 44.398438 26.066406 41.5625 23.230469 38.078125 23.230469 L 36.929688 23.230469 C 33.445312 23.230469 30.613281 26.066406 30.613281 29.550781 L 30.613281 35.320312 L 26.636719 35.320312 L 26.636719 30.121094 C 26.636719 24.128906 31.511719 19.253906 37.503906 19.253906 C 43.496094 19.253906 48.371094 24.128906 48.371094 30.121094 Z M 42.699219 35.320312 L 32.3125 35.320312 L 32.3125 29.550781 C 32.3125 27 34.382812 24.929688 36.929688 24.929688 L 38.078125 24.929688 C 40.625 24.929688 42.699219 27 42.699219 29.550781 Z M 58.578125 37.46875 C 58.578125 42.039062 56.632812 46.851562 53.050781 51.253906 C 53.261719 50.222656 53.367188 49.164062 53.367188 48.089844 L 53.367188 36.171875 C 53.367188 35.699219 52.988281 35.320312 52.519531 35.320312 L 50.070312 35.320312 L 50.070312 30.121094 C 50.070312 23.191406 44.433594 17.554688 37.503906 17.554688 C 30.574219 17.554688 24.9375 23.191406 24.9375 30.121094 L 24.9375 35.320312 L 22.492188 35.320312 C 22.023438 35.320312 21.640625 35.699219 21.640625 36.171875 L 21.640625 48.089844 C 21.640625 49.164062 21.746094 50.222656 21.957031 51.253906 C 18.375 46.855469 16.429688 42.039062 16.429688 37.46875 L 16.429688 19.035156 C 21.53125 18.027344 26.566406 15.867188 31.414062 12.605469 L 43.597656 12.605469 C 48.441406 15.867188 53.476562 18.027344 58.578125 19.035156 Z M 37.503906 40.261719 C 34.746094 40.261719 32.5 42.507812 32.5 45.265625 C 32.5 46.652344 33.066406 47.953125 34.0625 48.898438 L 34.0625 53.886719 C 34.0625 55.785156 35.605469 57.328125 37.503906 57.328125 C 39.402344 57.328125 40.945312 55.785156 40.945312 53.886719 L 40.945312 48.898438 C 41.945312 47.953125 42.507812 46.652344 42.507812 45.265625 C 42.507812 42.507812 40.265625 40.261719 37.503906 40.261719 Z M 39.566406 47.847656 C 39.363281 48.007812 39.246094 48.253906 39.246094 48.511719 L 39.246094 53.886719 C 39.246094 54.847656 38.464844 55.628906 37.503906 55.628906 C 36.542969 55.628906 35.761719 54.847656 35.761719 53.886719 L 35.761719 48.511719 C 35.761719 48.253906 35.644531 48.007812 35.445312 47.847656 C 34.652344 47.214844 34.199219 46.273438 34.199219 45.265625 C 34.199219 43.441406 35.683594 41.960938 37.503906 41.960938 C 39.328125 41.960938 40.808594 43.445312 40.808594 45.265625 C 40.808594 46.273438 40.355469 47.214844 39.566406 47.847656 Z M 39.566406 47.847656 " fill-opacity="1" fill-rule="nonzero"/></g></svg>