<svg xmlns="http://www.w3.org/2000/svg" xmlns:xlink="http://www.w3.org/1999/xlink" width="100" zoomAndPan="magnify" viewBox="0 0 75 74.999997" height="100" preserveAspectRatio="xMidYMid meet" version="1.0"><defs><clipPath id="a41068fcaf"><path d="M 8.328125 8.328125 L 66.828125 8.328125 L 66.828125 66.828125 L 8.328125 66.828125 Z M 8.328125 8.328125 " clip-rule="nonzero"/></clipPath></defs><g clip-path="url(#a41068fcaf)"><path fill="#dca74b" d="M 57.640625 52.109375 C 59.339844 52.109375 60.722656 53.488281 60.722656 55.191406 C 60.722656 56.890625 59.339844 58.273438 57.640625 58.273438 C 57.183594 58.273438 56.75 58.171875 56.363281 57.996094 C 50.503906 63.757812 42.476562 66.660156 34.277344 65.941406 C 27.972656 65.382812 21.863281 62.703125 17.109375 58.015625 L 17.320312 59.816406 C 17.382812 60.339844 17.011719 60.8125 16.488281 60.875 C 15.964844 60.933594 15.492188 60.5625 15.429688 60.039062 L 14.867188 55.300781 C 14.796875 54.667969 15.351562 54.136719 15.988281 54.253906 L 20.605469 55.105469 C 21.121094 55.199219 21.460938 55.695312 21.367188 56.210938 C 21.273438 56.726562 20.777344 57.070312 20.261719 56.976562 L 18.417969 56.632812 C 22.847656 61.015625 28.554688 63.523438 34.441406 64.039062 C 42.054688 64.710938 49.5 62.039062 54.957031 56.710938 C 54.703125 56.261719 54.558594 55.742188 54.558594 55.191406 C 54.558594 53.488281 55.9375 52.109375 57.640625 52.109375 Z M 33.28125 18.554688 C 28.628906 18.554688 24.855469 22.324219 24.855469 26.980469 C 24.855469 28.777344 25.417969 30.445312 26.375 31.8125 C 25.496094 32.667969 24.613281 33.519531 23.734375 34.375 L 23.640625 34.277344 C 23.347656 33.976562 22.859375 33.96875 22.554688 34.261719 L 17.929688 38.753906 C 17.625 39.046875 17.617188 39.535156 17.910156 39.835938 L 19.582031 41.558594 C 19.875 41.859375 20.363281 41.867188 20.664062 41.574219 L 25.292969 37.082031 C 25.597656 36.789062 25.601562 36.300781 25.308594 36 L 25.214844 35.902344 L 27.804688 33.386719 C 29.28125 34.648438 31.191406 35.40625 33.28125 35.40625 C 37.9375 35.40625 41.707031 31.632812 41.707031 26.980469 C 41.707031 22.324219 37.9375 18.554688 33.28125 18.554688 Z M 33.28125 21.019531 C 36.574219 21.019531 39.242188 23.6875 39.242188 26.980469 C 39.242188 30.273438 36.574219 32.941406 33.28125 32.941406 C 29.988281 32.941406 27.320312 30.273438 27.320312 26.980469 C 27.320312 23.6875 29.988281 21.019531 33.28125 21.019531 Z M 23.347656 45.050781 C 23.019531 45.050781 22.75 45.320312 22.75 45.648438 L 22.75 52.746094 C 22.75 53.074219 23.019531 53.34375 23.347656 53.34375 L 26.476562 53.34375 C 26.804688 53.34375 27.074219 53.074219 27.074219 52.746094 L 27.074219 45.648438 C 27.074219 45.320312 26.804688 45.050781 26.476562 45.050781 Z M 47.425781 32.089844 C 47.097656 32.089844 46.828125 32.355469 46.828125 32.683594 L 46.828125 52.746094 C 46.828125 53.074219 47.097656 53.34375 47.425781 53.34375 L 50.554688 53.34375 C 50.882812 53.34375 51.152344 53.074219 51.152344 52.746094 L 51.152344 32.683594 C 51.152344 32.355469 50.882812 32.089844 50.554688 32.089844 Z M 42.53125 36.167969 L 39.398438 36.167969 C 39.070312 36.167969 38.804688 36.4375 38.804688 36.765625 L 38.804688 52.746094 C 38.804688 53.074219 39.070312 53.34375 39.398438 53.34375 L 42.53125 53.34375 C 42.859375 53.34375 43.125 53.074219 43.125 52.746094 L 43.125 36.765625 C 43.125 36.4375 42.859375 36.167969 42.53125 36.167969 Z M 34.503906 40.707031 C 33.460938 40.707031 32.417969 40.707031 31.375 40.707031 C 31.046875 40.707031 30.777344 40.972656 30.777344 41.300781 C 30.777344 45.359375 30.777344 48.691406 30.777344 52.746094 C 30.777344 53.074219 31.046875 53.34375 31.375 53.34375 C 32.417969 53.34375 33.460938 53.34375 34.503906 53.34375 C 34.832031 53.34375 35.101562 53.074219 35.101562 52.746094 C 35.101562 48.691406 35.101562 45.359375 35.101562 41.300781 C 35.101562 40.972656 34.832031 40.707031 34.503906 40.707031 Z M 9.648438 45.121094 C 8.417969 40.390625 8.460938 35.429688 9.722656 30.761719 C 12.269531 21.324219 19.605469 13.894531 28.9375 11.199219 L 27.617188 10.730469 C 27.121094 10.554688 26.859375 10.011719 27.035156 9.515625 C 27.210938 9.019531 27.753906 8.761719 28.25 8.933594 L 32.675781 10.503906 C 33.285156 10.71875 33.5 11.460938 33.121094 11.972656 L 30.265625 15.796875 C 29.949219 16.21875 29.355469 16.304688 28.933594 15.992188 C 28.511719 15.675781 28.421875 15.078125 28.738281 14.65625 L 30.085938 12.855469 C 21.109375 15.214844 13.996094 22.234375 11.5625 31.253906 C 10.394531 35.578125 10.347656 40.164062 11.464844 44.546875 C 13.15625 44.558594 14.523438 45.933594 14.523438 47.628906 C 14.523438 49.328125 13.144531 50.707031 11.441406 50.707031 C 9.742188 50.707031 8.359375 49.328125 8.359375 47.628906 C 8.359375 46.59375 8.867188 45.679688 9.648438 45.121094 Z M 64.957031 43.855469 C 65.355469 43.515625 65.957031 43.5625 66.296875 43.960938 C 66.640625 44.359375 66.59375 44.960938 66.195312 45.300781 L 62.621094 48.347656 C 62.132812 48.765625 61.378906 48.582031 61.128906 48 L 59.242188 43.617188 C 59.035156 43.132812 59.257812 42.574219 59.742188 42.363281 C 60.226562 42.15625 60.785156 42.382812 60.996094 42.863281 L 61.878906 44.921875 C 62.882812 41.230469 63.066406 37.34375 62.402344 33.550781 C 60.671875 23.664062 53.382812 15.652344 43.75 12.96875 C 43.214844 13.878906 42.222656 14.492188 41.089844 14.492188 C 39.390625 14.492188 38.007812 13.109375 38.007812 11.410156 C 38.007812 9.707031 39.390625 8.328125 41.089844 8.328125 C 42.691406 8.328125 44.007812 9.546875 44.15625 11.105469 C 54.539062 13.957031 62.417969 22.578125 64.28125 33.222656 C 64.953125 37.066406 64.808594 41.003906 63.882812 44.773438 Z M 64.957031 43.855469 " fill-opacity="1" fill-rule="evenodd"/></g></svg>