<svg xmlns="http://www.w3.org/2000/svg" xmlns:xlink="http://www.w3.org/1999/xlink" width="100" zoomAndPan="magnify" viewBox="0 0 75 74.999997" height="100" preserveAspectRatio="xMidYMid meet" version="1.0"><defs><clipPath id="24645150ce"><path d="M 13.882812 8 L 61 8 L 61 67.5 L 13.882812 67.5 Z M 13.882812 8 " clip-rule="nonzero"/></clipPath></defs><g clip-path="url(#24645150ce)"><path fill="#dca74b" d="M 54.371094 44.847656 C 56.976562 42.34375 58.726562 39.507812 59.566406 36.414062 C 61.109375 30.742188 59.632812 23.898438 55.617188 18.109375 C 51.617188 12.339844 45.878906 8.707031 39.871094 8.148438 C 33.28125 7.535156 24.453125 10.34375 20.625 17.964844 C 18.757812 21.6875 18.714844 25.4375 19.007812 27.925781 C 19.292969 30.359375 18.449219 32.761719 16.753906 34.355469 L 16.667969 34.433594 C 16.164062 34.898438 15.722656 35.234375 15.332031 35.535156 C 14.574219 36.113281 14.023438 36.535156 13.980469 37.269531 C 13.90625 38.492188 15.367188 39.667969 18.570312 40.953125 C 17.789062 41.625 17.449219 42.261719 17.535156 42.894531 C 17.644531 43.71875 18.429688 44.167969 19.117188 44.566406 C 19.539062 44.808594 20.066406 45.109375 20.070312 45.347656 C 20.070312 45.519531 19.785156 45.738281 19.507812 45.949219 C 19.078125 46.277344 18.546875 46.683594 18.546875 47.359375 C 18.546875 48 19.023438 48.578125 20.007812 49.121094 C 19.765625 50.355469 19.617188 51.617188 19.5625 52.875 C 19.460938 55.230469 19.410156 56.410156 20.199219 57.242188 C 20.828125 57.910156 21.726562 58.148438 25.648438 57.890625 C 27.246094 57.789062 28.859375 57.632812 30.441406 57.425781 C 31.257812 58.882812 31.871094 60.441406 32.265625 62.0625 C 32.652344 63.664062 32.816406 65.316406 32.757812 66.964844 C 32.753906 67.09375 32.800781 67.21875 32.890625 67.308594 C 32.976562 67.402344 33.101562 67.453125 33.230469 67.453125 L 58.097656 67.453125 C 58.269531 67.453125 58.425781 67.363281 58.507812 67.214844 C 58.59375 67.066406 58.589844 66.886719 58.503906 66.742188 L 53.414062 58.167969 C 52.546875 56.855469 51.503906 54.703125 51.464844 51.878906 C 51.457031 51.226562 51.503906 50.570312 51.605469 49.929688 C 51.898438 48.054688 52.855469 46.300781 54.371094 44.847656 Z M 50.671875 49.78125 C 50.5625 50.476562 50.511719 51.1875 50.519531 51.894531 C 50.941406 60.246094 40.695312 60.671875 33.710938 66.511719 C 33.726562 64.9375 33.546875 63.371094 33.179688 61.839844 C 32.742188 60.03125 32.039062 58.292969 31.097656 56.679688 C 31 56.515625 30.820312 56.425781 30.628906 56.453125 C 28.96875 56.675781 27.269531 56.84375 25.585938 56.953125 C 21.78125 57.199219 21.207031 56.9375 20.882812 56.59375 C 20.367188 56.054688 20.414062 55.003906 20.503906 52.914062 C 20.558594 51.589844 20.726562 50.261719 21 48.96875 C 21.046875 48.757812 20.941406 48.542969 20.75 48.445312 C 19.578125 47.867188 19.488281 47.46875 19.488281 47.359375 C 19.488281 47.152344 19.789062 46.921875 20.078125 46.699219 C 20.496094 46.382812 21.011719 45.988281 21.011719 45.34375 C 21.007812 44.566406 20.253906 44.132812 19.585938 43.75 C 19.0625 43.445312 18.515625 43.132812 18.46875 42.769531 C 18.441406 42.542969 18.570312 42.039062 19.789062 41.207031 C 19.9375 41.109375 20.015625 40.9375 19.992188 40.761719 C 19.972656 40.585938 19.855469 40.4375 19.691406 40.375 C 15.316406 38.738281 14.898438 37.695312 14.917969 37.324219 C 14.9375 37.035156 15.253906 36.78125 15.90625 36.28125 C 16.289062 35.988281 16.769531 35.621094 17.304688 35.125 L 17.398438 35.042969 C 19.3125 33.246094 20.265625 30.542969 19.945312 27.8125 C 19.664062 25.453125 19.703125 21.902344 21.46875 18.386719 C 25.097656 11.160156 33.503906 8.5 39.78125 9.085938 C 45.511719 9.621094 51.003906 13.105469 54.84375 18.644531 C 58.703125 24.210938 60.128906 30.757812 58.65625 36.167969 C 57.863281 39.09375 56.199219 41.785156 53.71875 44.167969 C 52.054688 45.761719 51 47.703125 50.671875 49.78125 Z M 50.671875 49.78125 " fill-opacity="1" fill-rule="nonzero"/></g><path fill="#dca74b" d="M 51.203125 38.589844 C 52.070312 37.53125 56.300781 31.882812 54.496094 24.453125 C 54.21875 23.308594 52.542969 17.449219 46.722656 14.253906 C 42 11.652344 34.902344 10.953125 29.699219 15.242188 C 26.09375 18.21875 23.246094 23.894531 25.011719 29.871094 C 26.6875 35.554688 31.839844 39.570312 37.535156 39.644531 C 37.589844 39.644531 37.640625 39.644531 37.695312 39.644531 C 41.300781 39.644531 45.101562 38.074219 47.652344 35.519531 C 49.710938 33.457031 50.777344 30.96875 50.738281 28.324219 C 50.65625 22.671875 45.59375 17.609375 39.910156 17.492188 C 35.386719 17.414062 30.285156 20.171875 29.535156 24.960938 C 29.140625 27.464844 29.988281 30.121094 31.855469 32.246094 C 33.648438 34.285156 36.128906 35.457031 38.496094 35.402344 C 41.675781 35.316406 44.828125 33.007812 45.996094 29.914062 C 46.273438 29.175781 47.121094 26.929688 45.96875 24.808594 C 44.710938 22.492188 41.636719 21.3125 39.257812 22.238281 C 38.007812 22.722656 35.945312 24.164062 36.128906 26.484375 C 36.269531 28.261719 37.683594 29.785156 39.574219 30.199219 C 39.832031 30.253906 40.078125 30.09375 40.132812 29.839844 C 40.1875 29.585938 40.027344 29.332031 39.773438 29.277344 C 38.289062 28.953125 37.175781 27.773438 37.070312 26.410156 C 36.929688 24.640625 38.660156 23.480469 39.597656 23.117188 C 41.558594 22.355469 44.09375 23.335938 45.140625 25.261719 C 46.085938 27.003906 45.378906 28.875 45.113281 29.582031 C 44.074219 32.332031 41.28125 34.386719 38.472656 34.460938 C 36.394531 34.519531 34.175781 33.457031 32.5625 31.625 C 30.882812 29.710938 30.117188 27.335938 30.464844 25.109375 C 31.117188 20.949219 35.726562 18.433594 39.699219 18.433594 C 39.761719 18.433594 39.824219 18.433594 39.886719 18.4375 C 45.089844 18.542969 49.71875 23.171875 49.796875 28.339844 C 49.832031 30.722656 48.859375 32.976562 46.984375 34.851562 C 44.574219 37.269531 40.972656 38.734375 37.546875 38.703125 C 32.261719 38.636719 27.476562 34.894531 25.914062 29.605469 C 24.273438 24.042969 26.933594 18.75 30.300781 15.972656 C 35.160156 11.960938 41.824219 12.632812 46.269531 15.078125 C 51.742188 18.085938 53.320312 23.597656 53.582031 24.671875 C 55.316406 31.816406 50.976562 37.382812 50.476562 37.992188 C 50.308594 38.195312 50.339844 38.492188 50.542969 38.65625 C 50.742188 38.824219 51.039062 38.792969 51.203125 38.589844 Z M 51.203125 38.589844 " fill-opacity="1" fill-rule="nonzero"/></svg>