<svg xmlns="http://www.w3.org/2000/svg" xmlns:xlink="http://www.w3.org/1999/xlink" width="100" zoomAndPan="magnify" viewBox="0 0 75 74.999997" height="100" preserveAspectRatio="xMidYMid meet" version="1.0"><defs><clipPath id="7f7c2cfda8"><path d="M 8.886719 7.5 L 65.886719 7.5 L 65.886719 67.5 L 8.886719 67.5 Z M 8.886719 7.5 " clip-rule="nonzero"/></clipPath></defs><g clip-path="url(#7f7c2cfda8)"><path fill="#dca74b" d="M 12.734375 21.785156 C 12.996094 21.328125 13.578125 21.171875 14.035156 21.433594 L 18.128906 23.796875 C 18.582031 24.058594 18.742188 24.640625 18.480469 25.097656 C 18.21875 25.554688 17.636719 25.710938 17.179688 25.449219 L 13.085938 23.085938 C 12.632812 22.824219 12.472656 22.242188 12.734375 21.785156 Z M 15.542969 36.0625 C 15.542969 35.535156 15.117188 35.109375 14.585938 35.109375 L 9.863281 35.109375 C 9.335938 35.109375 8.90625 35.535156 8.90625 36.0625 C 8.90625 36.59375 9.335938 37.019531 9.863281 37.019531 L 14.585938 37.019531 C 15.117188 37.019531 15.542969 36.59375 15.542969 36.0625 Z M 17.175781 46.679688 L 13.082031 49.042969 C 12.628906 49.308594 12.472656 49.890625 12.734375 50.347656 C 13 50.800781 13.582031 50.957031 14.039062 50.695312 L 18.132812 48.332031 C 18.585938 48.066406 18.742188 47.484375 18.480469 47.027344 C 18.214844 46.570312 17.632812 46.417969 17.175781 46.679688 Z M 55.691406 36.207031 C 55.691406 42.867188 52.117188 48.695312 46.785156 51.871094 C 45.632812 52.558594 44.980469 53.707031 44.980469 55.046875 L 44.980469 55.691406 L 29.960938 55.691406 L 29.960938 55.046875 C 29.960938 53.707031 29.304688 52.558594 28.15625 51.871094 C 22.824219 48.695312 19.25 42.867188 19.25 36.207031 C 19.25 26.144531 27.40625 17.988281 37.46875 17.988281 C 47.535156 17.988281 55.691406 26.144531 55.691406 36.207031 Z M 44.265625 45.277344 C 43.039062 42.652344 40.40625 40.953125 37.507812 40.953125 C 34.601562 40.953125 31.96875 42.65625 30.75 45.277344 C 32.632812 46.683594 34.972656 47.519531 37.507812 47.519531 C 40.039062 47.519531 42.378906 46.683594 44.265625 45.277344 Z M 37.507812 39.042969 C 39.488281 39.042969 41.09375 37.4375 41.09375 35.457031 C 41.09375 33.476562 39.488281 31.871094 37.507812 31.871094 C 35.527344 31.871094 33.921875 33.476562 33.921875 35.457031 C 33.921875 37.4375 35.527344 39.042969 37.507812 39.042969 Z M 48.816406 36.207031 C 48.816406 29.960938 43.753906 24.898438 37.507812 24.898438 C 31.261719 24.898438 26.199219 29.960938 26.199219 36.207031 C 26.199219 39.210938 27.367188 41.9375 29.273438 43.960938 C 30.316406 42.042969 32.003906 40.535156 34.03125 39.714844 C 33.886719 39.597656 33.75 39.476562 33.617188 39.34375 C 32.625 38.347656 32.007812 36.972656 32.007812 35.457031 C 32.007812 32.417969 34.46875 29.957031 37.507812 29.957031 C 40.542969 29.957031 43.003906 32.417969 43.003906 35.457031 C 43.003906 37.113281 42.265625 38.667969 40.984375 39.714844 C 43.007812 40.535156 44.695312 42.042969 45.738281 43.960938 C 47.644531 41.9375 48.816406 39.210938 48.816406 36.207031 Z M 25.203125 16.726562 C 25.46875 17.179688 26.050781 17.335938 26.507812 17.074219 C 26.964844 16.808594 27.117188 16.226562 26.855469 15.769531 L 24.492188 11.675781 C 24.226562 11.222656 23.644531 11.066406 23.1875 11.328125 C 22.734375 11.59375 22.578125 12.175781 22.839844 12.632812 Z M 37.46875 14.136719 C 38 14.136719 38.425781 13.710938 38.425781 13.179688 L 38.425781 8.457031 C 38.425781 7.929688 38 7.5 37.46875 7.5 C 36.941406 7.5 36.515625 7.929688 36.515625 8.457031 L 36.515625 13.179688 C 36.515625 13.710938 36.941406 14.136719 37.46875 14.136719 Z M 48.433594 17.074219 C 48.890625 17.335938 49.472656 17.179688 49.738281 16.726562 L 52.101562 12.632812 C 52.363281 12.175781 52.207031 11.59375 51.753906 11.328125 C 51.296875 11.066406 50.714844 11.222656 50.449219 11.675781 L 48.085938 15.769531 C 47.824219 16.226562 47.976562 16.808594 48.433594 17.074219 Z M 57.765625 25.449219 L 61.859375 23.085938 C 62.3125 22.820312 62.46875 22.238281 62.207031 21.78125 C 61.941406 21.328125 61.359375 21.171875 60.902344 21.433594 L 56.808594 23.796875 C 56.355469 24.0625 56.199219 24.644531 56.460938 25.101562 C 56.726562 25.558594 57.308594 25.710938 57.765625 25.449219 Z M 36.160156 67.5 L 38.78125 67.5 C 40.78125 67.5 42.421875 65.894531 42.472656 63.90625 L 32.464844 63.90625 C 32.519531 65.894531 34.160156 67.5 36.160156 67.5 Z M 61.859375 49.042969 L 57.765625 46.679688 C 57.308594 46.417969 56.726562 46.570312 56.460938 47.027344 C 56.199219 47.484375 56.355469 48.066406 56.808594 48.332031 L 60.902344 50.695312 C 61.359375 50.957031 61.941406 50.800781 62.207031 50.347656 C 62.46875 49.890625 62.3125 49.308594 61.859375 49.042969 Z M 65.152344 35.132812 L 60.425781 35.132812 C 59.898438 35.132812 59.472656 35.558594 59.472656 36.082031 C 59.472656 36.609375 59.898438 37.035156 60.425781 37.035156 L 65.152344 37.035156 C 65.675781 37.035156 66.101562 36.609375 66.101562 36.082031 C 66.101562 35.558594 65.675781 35.132812 65.152344 35.132812 Z M 29.960938 59.488281 C 29.960938 60.867188 31.085938 61.992188 32.464844 61.992188 L 42.476562 61.992188 C 43.855469 61.992188 44.980469 60.867188 44.980469 59.488281 L 44.980469 57.605469 L 29.960938 57.605469 Z M 29.960938 59.488281 " fill-opacity="1" fill-rule="nonzero"/></g></svg>